<?xml version="1.0" encoding="UTF-8"?>
<svg id="Layer_2" data-name="Layer 2" xmlns="http://www.w3.org/2000/svg" xmlns:xlink="http://www.w3.org/1999/xlink" viewBox="0 0 145.83 215.04">
  <defs>
    <linearGradient id="linear-gradient" x1="93.23" y1="-36.11" x2="45.47" y2="212.79" gradientUnits="userSpaceOnUse">
      <stop offset="0" stop-color="#f5e39a"/>
      <stop offset="1" stop-color="#e0c373"/>
    </linearGradient>
  </defs>
  <g id="Layer_2-2" data-name="Layer 2">
    <path d="M48.58,49.1c.07-2.53-1.78-3.63-3.32-4.97-4.97-4.38-7.46-9.69-5.99-16.4.55-2.43,2.23-4.11,4.21-5.38,1.54-.99,3.6-.48,4.73.99.96,1.2.79,3.08-.38,4.38-.92,1.03-2.33,1.16-3.18.34-.48-.45-.62-.92-.27-1.54.27-.48.62-.86,1.23-.58.34.14.72.55.89-.14.17-.62.03-1.13-.58-1.44-.86-.45-1.68-.24-2.43.24-.86.51-1.16,1.44-1.03,2.36.24,1.68,1.27,2.77,2.84,3.32,1.44.48,2.67,0,3.73-1.06,1.85-1.88,2.23-3.7,1.1-5.68-1.27-2.29-3.8-3.46-6.16-2.88-3.87.99-6.33,4.38-6.57,9.11-.07,1.4-.24,2.84,0,4.28.17,1.06-.07,2.02-.89,2.81-.48.48-.86,1.1-1.3,1.61-7.43,8.49-6.61,17.67-2.16,27.09,1.71,3.6,4.38,6.51,7.33,9.14,7.67,6.85,14.11,14.62,17.53,24.45,4.28,12.33,3.22,23.9-4.69,34.65-4.38,5.96-9.21,11.64-13.18,17.87-4.11,6.47-7.02,13.39-7.98,21.06-1.03,7.98.92,15.27,5.17,21.98,1.27,1.95,2.67,3.84,4.14,5.65,3.53,4.31,8.46,5.82,13.7,6.47,3.8.45,7.6.21,11.4-.31,5.65-.79,12.6-8.97,10.27-15.51-.24-.65-.38-1.37-.79-1.85-1.06-1.3-.27-2.05.65-2.84,1.13-.96,1.61.24,2.19.79,1.88,1.78,2.47,4.18,2.88,6.61,1.03,5.65-.14,10.85-4.07,15.03-1.92,2.02-4.62,3.18-7.26,4.21-4.21,1.61-8.56,2.05-13.01,2.05-5.75,0-11.2-1.58-16.33-3.9-4.73-2.16-8.83-5.2-12.29-9.28-3.94-4.62-6.61-9.79-8.53-15.51-1.4-4.21-1.99-8.49-2.05-12.88-.1-4.14-.17-8.32.34-12.43.51-3.97.82-7.98,1.81-11.88,1.34-5.48,3.63-10.58,5.72-15.75.99-2.47,1.78-5.03,2.91-7.46,2.71-5.89,2.16-11.75.03-17.6-1.81-5-4.52-9.55-7.5-13.94-3.9-5.68-7.7-11.44-10.99-17.5-3.46-6.4-4.31-13.25-3.73-20.37.34-3.97,1.06-7.91,1.88-11.81,1.2-5.75,4.52-10.24,8.46-14.38,3.9-4.07,7.98-7.98,12.36-11.57,1.3-1.06,1.71-2.29,1.68-4.01-.07-1.88-.68-4.04,1.44-5.82-.1,1.51-.38,2.74.17,3.94.45,1.03.96,2.12,2.29,1.75,1.23-.38,2.43-1.13,2.29-2.67-.1-1.2-.38-2.43-1.75-2.98.92-.89,2.09-.34,2.57.14,1.03.99,2.43,1.03,3.46,1.88.45.38,1.3.45,1.71-.07.45-.51-.17-1.06-.45-1.47-.99-1.4-1.06-3.56-.07-5.14.55,3.25,2.02,4.79,5.24,5.41,1.78.34,3.56.58,5.24,1.3.31.14.68.27.96,0,.38-.38-.17-.55-.24-.86-1.1-3.73.27-6.92,2.33-10.17.55.92.34,1.78.34,2.57-.14,4.07,1.88,7.43,3.9,10.68.82,1.34,2.6,1.44,4.35,1.1-1.1,2.81-.89,5.38.45,7.81,1.34,2.47,4.04,2.81,6.54,3.8-3.08,3.77-2.09,7.77-.92,11.78.21.72.24,1.4.14,2.16-.45,3.87-.62,7.74.82,11.44.51,1.34,1.58,2.5,2.4,3.7,2.5,3.66,5.03,7.33,7.57,10.99.24.34.51.65.62,1.03.14.58.34,1.23-.14,1.78-.51.58-1.1.14-1.58-.03-1.95-.82-3.73-1.06-5.2.86-.65.86-.96-.03-1.27-.38-2.19-2.4-4.35-4.83-6.57-7.19-2.23-2.4-4.73-4.45-7.36-6.37-1.13-.82-2.02-1.61-1.85-3.15.03-.41.07-1.13-.58-.99-1.92.34-1.68-1.06-1.71-2.09-.07-1.16-.27-1.71-1.58-1.13-.68.31-1.44.1-2.16-.14-1.4-.51-2.71-.45-3.9.89h0ZM95.87,49.92c.86-3.22,2.74-5.55,4.62-7.88,2.16-2.4,3.7-5.1,4.35-8.36.96-4.76-.21-8.66-4.04-11.71-2.33-1.85-6.03-.38-6.47,2.6-.24,1.54,1.71,3.63,3.29,3.49.82-.07,1.2-.62,1.4-1.3.1-.41.1-.82-.48-.89-.65-.1-1.27-.31-1.3-1.1,0-.48.38-.65.79-.75.82-.21,1.3.21,1.71.82,1.03,1.51.82,2.91-.55,3.87-1.92,1.3-4.04,1.16-5.07-.31-1.47-2.12-1.27-5.24.51-7.33,1.51-1.78,3.97-2.19,6.4-1.1,1.47.68,2.57,1.71,3.49,2.98,2.23,3.05,2.26,6.51,1.85,10-.17,1.54-.24,2.84,1.47,3.66.96.45,1.58,1.47,2.09,2.43,3.39,6.16,4.86,12.81,4.14,19.76-.58,5.79-3.9,10.34-7.88,14.42-4.62,4.73-9.72,8.97-13.59,14.42-6.81,9.59-9.72,19.93-6.37,31.61,2.05,7.16,5.75,13.29,10.27,19.11,4.55,5.86,9.28,11.57,12.53,18.32,5.27,10.92,6.75,22.15,2.81,33.8-3.42,10.2-14.69,16.26-25.03,13.7-1.47-.38-3.05-1.85-4.38-1.03-1.23.75-1.85,2.53-2.84,3.77-.79.96-.21,1.51.51,1.75,3.53,1.2,7.12,2.4,10.79,2.64,2.94.17,5.99.24,9.01-.24,5.72-.92,10.68-3.15,15-6.99,5.2-4.66,8.59-10.55,10.89-16.98,2.81-7.88,4.11-16.03,3.46-24.45-.34-4.55-1.37-9.04-2.71-13.35-1.78-5.72-4.35-11.2-6.81-16.68-2.57-5.65-4.25-11.57-3.97-17.84.34-7.05,2.94-13.29,6.92-19,3.12-4.52,6.37-8.9,8.97-13.73,5.68-10.51,8.39-21.57,5.51-33.42-1.68-7.02-3.87-13.97-9.25-19.28-3.8-3.77-7.77-7.43-12.22-10.41-2.53-1.71-3.6-3.7-3.36-6.68.14-1.58-.14-3.22-1.78-4.45-.03,1.44.07,2.71-.34,3.9-.31.92-.82,1.92-1.92,1.92-1.16.03-1.4-1.13-1.68-2.05-.48-1.61.24-2.91,1.3-4.18-3.12.21-5.38,2.5-8.49,2.81,1.16-2.71,2.5-5.2,1.16-8.15-.62,6.54-7.02,8.66-11.03,8.56,1.3-3.46.31-9.07-2.91-10.24.07,5.17-2.19,13.56-9.14,13.7.24.45.45.92.68,1.34,2.02,3.46.51,6.4-1.88,8.15-.92.68-2.09,1.13-3.15,1.61-.62.27-.86.48-.48,1.23,1.34,2.6,1.23,5.27.38,7.98-.45,1.44-.86,2.98-.48,4.38.99,3.8.86,7.57.31,11.37-.14.92.1,1.64.65,2.36,1.51,1.99,2.98,4.01,4.38,6.1.58.86,1.03,1.13,1.95.34,1.44-1.2,2.94-2.29,4.52-3.36.92-.62,1.51-1.3,1.4-2.5-.03-.45-.1-1.34.34-1.37,2.19-.14,1.68-1.92,2.09-3.15.14-.38-.1-.99.72-.89,2.4.27,5.14-.48,6.92,2.26h0ZM38.14,36.23c-3.94,6.06-7.4,11.81-5.92,19.24,1.3,6.71,3.73,12.74,8.87,17.46,5.44,5.03,10.65,10.31,14.62,16.64,4.31,6.95,7.26,14.31,6.61,22.7-.51,6.44-2.71,12.4-5.51,18.18-.34.72-.92,1.37-.86,2.47,1.27-.99,1.78-2.26,2.4-3.46,3.6-6.95,5.72-14.35,6.99-22.02,1.78-10.92-1.2-20.2-9.11-28.04-6.47-6.4-11.88-13.66-16.37-21.61-3.05-5.34-3.12-10.58.45-15.72.38-.55.48-.92-.07-1.44-1.16-1.1-1.78-2.5-2.09-4.42h0ZM123.09,98.24c.07.1.17.21.34.38,1.75-.99,3.42-2.09,5.2-2.94,1.13-.55,1.71-1.16,1.47-2.43-.24-1.37.27-2.02,1.75-2.19.96-.14,2.33-.14,2.57-1.64.21-1.34.62-2.64.65-3.97.03-1.71.89-2.6,2.26-3.46,4.14-2.57,4.07-2.64,3.25-7.29-.03-.07,0-.14-.03-.17-.72-1.44.14-2.4,1.1-3.18,3.46-2.81,3.49-2.81,2.05-6.99-.17-.41-.24-.86-.45-1.27-.58-1.16-.21-2.02.62-2.98.62-.75,2.19-.82,1.92-1.95-.21-.89-1.2-1.61-1.85-2.4-.03-.07-.07-.1-.1-.14-2.12-2.36-2.19-2.71-.65-5.48.68-1.27.89-2.47-.27-3.63-.65-.62-1.06-1.47-1.64-2.16-.62-.72-.68-1.2,0-2.02,1.4-1.75,1.06-3.15-.72-4.31-2.29-1.47-2.33-1.47-1.37-5.07.31-1.06.27-1.85-.99-2.29-1.1-.38-2.16-.99-3.18-1.54-.96-.51-1.64-1.13-1.61-2.36.07-2.5-.99-4.11-3.63-4.52-.41-.03-.79-.41-1.2-.55-1.34-.38-1.99-1.1-1.71-2.57.07-.45.34-1.16-.68-1.16-1.37,0-2.71-.34-4.04-.34s-2.09-.55-2.47-1.81c-.41-1.44-.92-2.88-1.44-4.45-.82,1.23-1.47,2.36-2.26,3.39-1.4,1.92-1.16,2.77.68,4.18,2.4,1.81,4.76,3.7,7.19,5.51,12.74,9.55,16.88,22.77,15.68,37.97-.79,9.96-5,18.83-10.48,27.09-1.95,2.94-3.97,5.86-5.96,8.77h0ZM91.56,133.89c-.45-.79-.89-1.54-1.37-2.33-2.47-3.94-4.59-8.01-5.79-12.5-1.64-6.03-2.71-12.16-.24-18.25,3.36-8.22,7.84-15.65,14.38-21.78,2.19-2.05,4.28-4.14,6.37-6.23,3.66-3.73,6.51-7.91,6.99-13.32.45-4.93.24-9.79-1.34-14.52-.92-2.77-2.36-5.27-4.31-7.57-.45,1.27-.72,2.4-1.47,3.39-1.81,2.43-.86,4.52,2.16,4.86.34.03.65.07,1.13.14-.31.75-.55,1.37-.82,1.99-.75,1.81-.31,3.18,1.4,4.04.07.03.07.14.14.27-.79.65-1.54,1.34-2.36,1.95-.58.45-.82.86-.1,1.3,1.92,1.13.86,1.99-.27,2.77-1.13.79-1.47,1.68-.75,2.98.45.79.89,1.68.92,2.77-.82,0-1.58.07-2.29,0-1.27-.1-1.3.45-.89,1.4.34.82.62,1.71.96,2.74h-2.71c-.82,0-1.3.24-1.2,1.2.07.62-.07,1.27,0,1.88.1.89-.27,1.13-1.13,1.23-2.36.24-2.36.31-2.26,2.71.03.27,0,.58.03.86.07.58-.14.72-.75.75-.92.03-2.19-.82-2.67-.03-.45.68,0,1.95.03,2.98v1.61c-1.3-.27-2.47-.55-3.7-.82,0,1.44-.07,2.81.03,4.14.07,1.06-.38,1.2-1.2.96-.38-.1-.79-.14-1.16-.27-1.3-.48-1.71-.07-1.58,1.27.1,1.13.48,2.57-.03,3.32-.62.92-2.05-.1-3.15.03-.07,0-.1.07-.24.14.21.55.41,1.13.62,1.71.89,2.36.92,2.43-1.37,3.49-1.16.55-1.68,1.1-1.23,2.53.27.92,2.02,2.4-.34,3.18-.1,0-.03.51,0,.79.58,8.46,2.4,16.64,6.1,24.35,1.4,2.91,2.94,5.75,5.48,7.88h0ZM11.77,30.51c.92,1.44-.14,2.4-.96,3.08-2.53,2.12-4.55,4.69-6.57,7.26-1.16,1.47-2.6,2.84-2.88,4.86-.14.99-.45,2.16.31,2.91.89.89,1.4-.75,2.4-.68-.41,2.64-1.54,4.93-2.77,7.16-1.64,2.94-1.58,5.92-.62,9.01.24.75.75,1.34,1.51,1.47.86.17,1.2-.62,1.44-1.47.51.75.34,1.37.27,1.99-.17,2.09-.79,4.14-.34,6.27.65,3.01,1.3,6.06,3.87,8.18.75.62,1.47,1.1,2.16-.14.58.79.89,1.64.89,2.57.03,3.53,1.34,6.68,3.12,9.66.48.79.96.89,1.51.03.17-.24.1-.72.79-.62.41,2.88,1.64,5.41,3.7,7.5.41.45.79,1.37,1.71.45.68-.72,1.03-1.3.21-2.26-6.1-7.09-9.86-15.55-13.8-23.87-2.84-5.96-2.88-12.4-2.5-18.8.62-9.86,3.7-18.7,10.96-25.75,3.12-3.01,6.33-5.89,9.76-8.56,1.61-1.23,2.98-2.67,3.49-4.79-1.37,1.2-2.53,2.57-4.07,3.53-3.46,2.12-7.33,3.18-11.23,4.01-2.98.62-5.31,3.9-5.27,6.78.03.79-.31,1.81,1.06,1.88,1.16.07,1.81-.41,1.88-1.64h0ZM74.37,190.42c-.03-4.59,1.37-6.71,5.07-7.5,1.1-.24,2.16-.03,3.22.1.58.07,1.3.17,1.61-.58.27-.62.17-1.23-.27-1.75-.34-.38-.72-.72-1.13-1.03-4.14-2.94-9.35-1.99-12.02,2.33-3.46,5.58-3.32,11.27-.27,16.98,1.4,2.67,2.05,2.77,3.73.21.75-1.16,1.85-2.43,1.1-4.01-.75-1.51-1.1-3.08-1.03-4.76h0ZM62.79,69.72c.58.41,1.03.58,1.75.27,1.61-.68,3.29-.72,4.93.03,1.3.58,1.3-.72,1.85-1.2.41-.38.82-.82.1-1.51-1.23-1.16-2.29-2.47-3.42-3.77-.48-.51-.75-.48-1.13.1-1.34,2.02-2.71,4.04-4.07,6.06h0ZM135.7,115.02c-1.51-1.58-3.12-2.74-4.69-4.04-1.71-1.4-1.64-1.54.14-2.84,1.3-.99,2.4-2.23,3.8-3.53-2.36-.21-4.45-.38-6.64-.58,1.16-2.09,1.37-4.45,2.74-6.33.24-.34.03-.62,0-.92-.03-.31-.34-.21-.55-.1-2.6,1.13-5.24,2.23-7.84,3.36-.24.14-.45.51-.62.79-4.49,6.85-5.51,14.38-4.14,22.29.38,2.09.92,4.14,2.43,6.03,2.02-3.84,3.73-7.6,4.66-11.68,1.06-4.62.17-9.18-.79-13.7-.1-.38-.58-.92.14-1.13.72-.21.65.55.75.89,1.2,3.8,1.64,7.7,1.06,11.64-.82,5.48-2.77,10.55-5.41,15.37-.21.41-.92.86-.1,1.44,2.09,1.51,4.35,2.74,6.71,4.11-.17-3.08-.92-5.82-1.51-8.59-.21-.92.1-1.2.92-1.34,1.88-.31,3.77-.65,5.82-.99-.92-1.81-1.71-3.6-2.71-5.27-.62-1.1-.27-1.95.62-2.16,1.99-.48,3.12-2.29,5.2-2.71h0ZM121.59,109.47c.72,4.01,1.34,7.67-.96,11.3-.82-3.84-.89-7.5.96-11.3ZM22.05,101.56c-1.03.07-1.37.58-1.81.92-4.14,3.42-6.51,7.98-7.81,13.08-.48,1.85-.51,3.77-.17,5.68.58,3.18,2.33,5.75,4.31,8.18,1.2,1.44,2.81,2.6,4.69,2.88,1.37.21,2.84-.27,3.46-1.81.72-1.71.68-3.46-.48-5-3.94-5.24-4.52-11.27-4.21-17.5.1-2.23,1.1-4.21,2.02-6.44h0ZM26.29,126.97c5.14-8.46,3.87-17.16-2.98-25.72-2.91,4.69-3.8,18.05,2.98,25.72h0ZM25.57,119.27c-2.12-2.91-2.16-6.03-1.13-9.55,2.74,3.7,3.05,6.68,1.13,9.55ZM10.78,116.05c.99-4.66,3.8-8.32,6.37-12.12.07-.1.14-.21.17-.31.92-2.05.55-3.6-1.1-4.35-2.47-1.13-4.76-.62-5.75,1.27-1.2,2.23-1.1,4.66-1.23,7.09-.14,2.94.96,5.58,1.54,8.42h0Z" fill="url(#linear-gradient)"/>
  </g>
</svg>