<?xml version="1.0" encoding="UTF-8"?>
<svg id="Layer_1" xmlns="http://www.w3.org/2000/svg" version="1.1" viewBox="0 0 48 48">
  <!-- Generator: Adobe Illustrator 30.0.0, SVG Export Plug-In . SVG Version: 2.1.1 Build 123)  -->
  <defs>
    <style>
      .st0 {
        fill: #c9a55e;
      }
    </style>
  </defs>
  <path class="st0" d="M39.4,28.2l-1.4.6c-2.8,3-6.6,5.2-10.6,6-6.2,1.3-14.2-.4-15.6-7.5s-.6-5.3,1.5-5.2,1.3,1.9,1.4,2.9c.6,3.9,3.6,6.6,7.6,6.7v.2c-1.8,0-3.6-.3-5-1.3s-2.7-2.9-3.2-4.9-.2-1.3-.4-1.8c-.4-1-.6.6-.6.9-.2,4.5,2.8,7.5,7,8.5,5.5,1.2,11.5-.6,15.7-4.4,0,0-.1,0-.2,0-3.7.8-6.5,1.8-10.4,1s-7.2-3.9-7.3-8.1c-.1-3.9,3.1-7.4,7.1-6.3s3,1.6,3.2,2.9-.3,1.1-1,1-.5-.5-.7-.9c-1.1-1.8-3.7-2-5.3-.8-2.7,2-2.3,6.1-.2,8.4,4,4.5,11.7,2.4,16.6.7,1-.3,2-.8,2.9-1.1s1.1.1,1.1.7-.8,2.2-1,2.8c-3.6,7.7-11.8,13-20.5,11.2s-15.5-12.8-11.5-22.2c2.5-5.9,9-10.1,15.5-8.7s8.2,4.9,7.6,9.6-2.7,4.5-5.4,3.9-2.8-1.7-2.1-3.1,1.5-.7,1.6.2-.3.5,0,.9c.7,1,2.5.5,3.3-.1,2.1-1.7.9-5.5-.7-7.2-3.2-3.6-8.6-3.5-12.5-1.4-5.9,3.1-8.4,10.1-6.6,16.4s9.5,11.7,17,10.3c5.8-1,10.7-5.5,13-10.8Z"/>
</svg>