<?xml version="1.0" encoding="UTF-8"?>
<svg id="Layer_2" data-name="Layer 2" xmlns="http://www.w3.org/2000/svg" xmlns:xlink="http://www.w3.org/1999/xlink" viewBox="0 0 339.86 34.02">
  <defs>
    <linearGradient id="linear-gradient" x1="96.68" y1="-117.14" x2="96.68" y2="84.02" gradientUnits="userSpaceOnUse">
      <stop offset="0" stop-color="#e4d2a0"/>
      <stop offset="1" stop-color="#a89462"/>
    </linearGradient>
    <linearGradient id="linear-gradient-2" x1="254.71" y1="-117.14" x2="254.71" y2="84.02" xlink:href="#linear-gradient"/>
  </defs>
  <g id="Layer_2-2" data-name="Layer 2">
    <g>
      <path d="M181.16,18.18c8.01,2.32,10.91-7.36,4.24-11.57-7.97-5.04-18.22.61-25.56,4.43-9.41,4.9-18.18,10.69-28.73,13.14-13.45,3.13-23.82-.47-36.85-2.16-28.37-3.69-58.05,2.97-86.75,1.5-2.5-.13-5.02-.49-7.51-.67l14.95-.09c.45-.01.87-.19,1.32-.21,23.38-.71,46.96-4.79,70.23-3.8,16.69.71,33.02,6.88,49.24.34,14.52-5.86,37.08-26.41,53.17-16.36,8.14,5.08,4.28,18.59-4.78,17.34-.42-.06-3.56-1.34-2.97-1.89Z" fill="url(#linear-gradient)"/>
      <path d="M183.44,12.28c-4.91-2.51-8.71,2.24-8.57,6.95.12,4.13,3.85,7.82,7.52,9.22,10.05,3.86,22.49-3.34,31.97-6.67,6.02-2.11,12.53-4.05,18.87-4.92,16.08-2.2,32.59,1.93,48.52,3.75,14.39,1.65,28.81,2.09,43.16,2.11,4.7,0,9.61-.18,14.28,0,.23,0,.71-.14.66.19-1.67.09-3.37.09-5.04.19-16.38,1.05-33.08,1.2-49.48-.19-21.89-1.86-41.48-7.3-63.23-.24-13.81,4.48-30.81,16.86-45.32,8.51-7.19-4.14-10.19-14.17-3.54-20.26,3.14-2.87,8.97-3.56,10.18,1.34Z" fill="url(#linear-gradient-2)"/>
    </g>
  </g>
</svg>