<?xml version="1.0" encoding="UTF-8"?>
<svg id="Layer_2" data-name="Layer 2" xmlns="http://www.w3.org/2000/svg" xmlns:xlink="http://www.w3.org/1999/xlink" viewBox="0 0 999.94 309.01">
  <defs>
    <linearGradient id="linear-gradient" x1="291.94" y1="-52.31" x2="291.94" y2="417.7" gradientUnits="userSpaceOnUse">
      <stop offset="0" stop-color="#f5e39a"/>
      <stop offset="1" stop-color="#e0c373"/>
    </linearGradient>
    <linearGradient id="linear-gradient-2" x1="432.92" y1="-52.31" x2="432.92" y2="417.7" xlink:href="#linear-gradient"/>
    <linearGradient id="linear-gradient-3" x1="572.99" y1="-52.31" x2="572.99" y2="417.7" xlink:href="#linear-gradient"/>
    <linearGradient id="linear-gradient-4" x1="677.57" y1="-52.31" x2="677.57" y2="417.7" xlink:href="#linear-gradient"/>
    <linearGradient id="linear-gradient-5" x1="806.55" y1="-52.31" x2="806.55" y2="417.7" xlink:href="#linear-gradient"/>
    <linearGradient id="linear-gradient-6" x1="933.92" y1="-52.31" x2="933.92" y2="417.7" xlink:href="#linear-gradient"/>
    <linearGradient id="linear-gradient-7" x1="269.25" y1="-52.31" x2="269.25" y2="417.7" xlink:href="#linear-gradient"/>
    <linearGradient id="linear-gradient-8" x1="330.49" y1="-52.31" x2="330.49" y2="417.7" xlink:href="#linear-gradient"/>
    <linearGradient id="linear-gradient-9" x1="392.46" y1="-52.31" x2="392.46" y2="417.7" xlink:href="#linear-gradient"/>
    <linearGradient id="linear-gradient-10" x1="453.65" y1="-52.31" x2="453.65" y2="417.7" xlink:href="#linear-gradient"/>
    <linearGradient id="linear-gradient-11" x1="508.99" y1="-52.31" x2="508.99" y2="417.7" xlink:href="#linear-gradient"/>
    <linearGradient id="linear-gradient-12" x1="558.2" y1="-52.31" x2="558.2" y2="417.68" xlink:href="#linear-gradient"/>
    <linearGradient id="linear-gradient-13" x1="601.37" y1="-52.31" x2="601.37" y2="417.7" xlink:href="#linear-gradient"/>
    <linearGradient id="linear-gradient-14" x1="678.96" y1="-52.31" x2="678.96" y2="417.7" xlink:href="#linear-gradient"/>
    <linearGradient id="linear-gradient-15" x1="733.67" y1="-52.31" x2="733.67" y2="417.7" xlink:href="#linear-gradient"/>
    <linearGradient id="linear-gradient-16" x1="785.13" y1="-52.31" x2="785.13" y2="417.7" xlink:href="#linear-gradient"/>
    <linearGradient id="linear-gradient-17" x1="868.38" y1="-52.31" x2="868.38" y2="417.7" xlink:href="#linear-gradient"/>
    <linearGradient id="linear-gradient-18" x1="916.68" y1="-52.31" x2="916.68" y2="417.7" xlink:href="#linear-gradient"/>
    <linearGradient id="linear-gradient-19" x1="967.29" y1="-52.31" x2="967.29" y2="417.7" xlink:href="#linear-gradient"/>
    <linearGradient id="linear-gradient-20" x1="133.97" y1="-51.88" x2="65.35" y2="305.78" xlink:href="#linear-gradient"/>
  </defs>
  <g id="Text">
    <path d="M334.25,157.21c0-4.66-.79-9.55-2.34-14.52-1.58-5.05-4.76-9.83-9.46-14.22l-45.03-41.6c-3.35-3.2-5.67-6.7-6.9-10.39-1.25-3.75-1.88-7.05-1.88-9.81,0-6.67,2.5-12.59,7.44-17.59,4.93-5,11.5-7.54,19.52-7.54,6.85,0,12.76,2.02,17.55,6.02,4.8,4,7.13,9.36,7.13,16.37v1.16h4.36v-30.43h-10.73c-.85-.18-1.73-.36-2.65-.55-2.68-.53-5.48-.96-8.33-1.27-2.86-.31-5.55-.46-8.01-.46-8.87,0-16.49,1.94-22.67,5.77-6.18,3.83-10.89,8.87-14.02,14.97-3.12,6.08-4.7,12.48-4.7,19.05,0,4.54.95,9.48,2.81,14.68,1.89,5.26,5.22,10.14,9.91,14.52l43.91,40.71c2.75,2.47,4.89,5.45,6.34,8.85,1.46,3.43,2.19,7.32,2.19,11.55,0,8.76-2.91,15.82-8.65,20.97-5.79,5.21-12.82,8.07-20.89,8.51-6.45.29-12.28-1-17.32-3.85-5.03-2.84-8.9-7.09-11.53-12.64-2.64-5.57-3.61-12.22-2.87-19.74l.12-1.27h-4.17l-.26.8c-1.08,3.4-1.94,7.19-2.56,11.27-.62,4.07-.93,8.02-.93,11.72s.24,6.86.71,9.36l.06.35.25.25c3.14,3.14,7.15,5.73,11.93,7.68,4.69,1.92,9.62,3.3,14.67,4.07,5,.77,9.4,1.16,13.09,1.16,13.37,0,24.15-4.12,32.04-12.24,7.88-8.11,11.87-18.77,11.87-31.67Z" fill="url(#linear-gradient)"/>
    <path d="M402.59,193.71h-2.86c-1.31,0-2.56-.41-3.84-1.24-1.26-.82-2.13-1.96-2.68-3.51-.46-1.28-.44-2.86.07-4.69l12.75-32.57h49.73l12.29,32.61c.85,2.88.56,5.06-.87,6.64-1.69,1.86-3.53,2.76-5.62,2.76h-2.86v4.21h45.11v-4.21h-2.68c-2.7,0-5.58-.88-8.55-2.6-2.94-1.7-5.34-4.63-7.13-8.69l-50.92-121.78-.11-.85h-.25l-1.13-2.71-.57,2.71h-1.93v1.16c0,.61-.17,1.86-.99,4.4-.69,2.12-1.51,4.34-2.44,6.57-.95,2.28-2.12,5-3.52,8.18l-43.62,103.6c-1.81,3.41-4.03,5.91-6.6,7.43-2.92,1.72-5.76,2.6-8.45,2.6h-2.87v4.21h40.55v-4.21ZM409.16,143.67l22.2-56.69,21.36,56.69h-43.56Z" fill="url(#linear-gradient-2)"/>
    <path d="M614.77,165.5c-1.99,4.73-4.32,9.01-6.92,12.72-2.54,3.62-5.88,6.47-9.93,8.47-4.07,2-9.44,3.02-15.95,3.02h-26.05v-112.21c.12-3.01,1.22-5.52,3.37-7.67,2.14-2.14,4.64-3.18,7.65-3.18h3.63v-4.21h-43.97v4.21h3.63c3,0,5.51,1.04,7.65,3.18s3.25,4.66,3.37,7.67v105.35c-.12,3.02-1.22,5.53-3.37,7.67-2.14,2.14-4.64,3.18-7.65,3.18h-3.63v4.21h80.92l11.86-33.13h-4.31l-.3.71Z" fill="url(#linear-gradient-3)"/>
    <path d="M688.27,190.53c-2.15-2.15-3.25-4.66-3.37-7.67v-112.59h34.58c2.77.12,5.09,1.13,7.12,3.1,2,1.95,2.98,4.29,2.98,7.16v4.28l4.21.42v-27.03l-1.63.73c-1.05.47-2.88.96-5.45,1.44-2.61.5-5.5.94-8.58,1.32-3.05.37-5.98.56-8.71.56h-63.73c-2.6,0-5.5-.19-8.61-.56-3.14-.38-6.02-.82-8.57-1.32-2.52-.49-4.4-.98-5.59-1.46l-1.58-.64v26.95l4.21-.42v-4.28c0-2.88.95-5.23,2.9-7.17,1.96-1.95,4.31-2.96,7.2-3.08h34.59v112.59c-.12,3.01-1.23,5.52-3.37,7.67-2.14,2.14-4.64,3.18-7.65,3.18h-3.63v4.21h43.97v-4.21h-3.63c-3.01,0-5.51-1.04-7.65-3.18Z" fill="url(#linear-gradient-4)"/>
    <path d="M835.18,193.71h-2.86v4.21h45.11v-4.21h-2.68c-2.7,0-5.58-.88-8.55-2.6-2.94-1.7-5.34-4.63-7.13-8.69l-50.92-121.78-.11-.85h-.25l-1.13-2.71-.57,2.71h-1.93v1.16c0,.61-.17,1.86-.99,4.4-.69,2.12-1.51,4.34-2.44,6.57-.95,2.28-2.12,5-3.52,8.18l-43.62,103.6c-1.81,3.41-4.03,5.91-6.6,7.43-2.92,1.72-5.76,2.6-8.45,2.6h-2.87v4.21h40.55v-4.21h-2.86c-1.31,0-2.56-.41-3.84-1.24-1.26-.82-2.13-1.96-2.68-3.51-.46-1.28-.44-2.86.07-4.69l12.75-32.57h49.73l12.29,32.61c.85,2.88.56,5.06-.87,6.64-1.69,1.86-3.53,2.76-5.62,2.76ZM782.79,143.67l22.2-56.69,21.36,56.69h-43.56Z" fill="url(#linear-gradient-5)"/>
    <path d="M955.4,62.44v4.21h3.44c1.5,0,2.81.5,4,1.53,1.23,1.06,2.05,2.37,2.5,4,.42,1.52.15,2.99-.81,4.49l-1.22,1.89h.23s-28.25,49.46-28.25,49.46l-27.67-51.53c-.96-2.21-.83-4.35.39-6.52,1.25-2.23,3.01-3.31,5.37-3.31h3.63v-4.21h-49.11v4.21h3.82c3.81,0,7.37,1.09,10.58,3.23,3.26,2.18,5.77,4.68,7.45,7.44l.32.53h.12s35.73,59.8,35.73,59.8v45.2c-.12,3.02-1.22,5.53-3.37,7.67-2.14,2.14-4.64,3.18-7.65,3.18h-3.63v4.21h43.78v-4.21h-3.44c-3.02,0-5.55-1.04-7.76-3.19-2.2-2.14-3.26-4.64-3.26-7.64v-45.2l37.23-60.23.05-.06c1.93-2.78,4.58-5.31,7.87-7.5,3.22-2.14,6.71-3.23,10.39-3.23h3.82v-4.21h-44.54Z" fill="url(#linear-gradient-6)"/>
    <g>
      <path d="M275.16,247.84h1.88c.66,0,1.2.22,1.69.7.48.47.71.99.71,1.64v13.59h-20.36v-13.57c.03-.66.27-1.2.74-1.67.47-.47.99-.69,1.65-.69h1.87v-2.86h-14.45v2.86h1.87c.66,0,1.18.22,1.65.69.48.48.71,1.01.74,1.68v30.66c-.03.67-.27,1.2-.74,1.67-.47.47-.99.69-1.65.69h-1.87v2.86h14.45v-2.86h-1.87c-.66,0-1.18-.22-1.65-.69-.48-.48-.71-1.01-.74-1.67v-13.12h20.36v13.15c0,.65-.23,1.17-.71,1.64-.49.48-1.02.7-1.69.7h-1.88v2.86h14.45v-2.86h-1.88c-.66,0-1.18-.22-1.65-.69-.48-.48-.71-1.01-.74-1.67v-30.66c.03-.67.27-1.2.74-1.67.47-.47.99-.69,1.65-.69h1.88v-2.86h-14.45v2.86Z" fill="url(#linear-gradient-7)"/>
      <path d="M348.28,282.57c-.7-.41-1.28-1.13-1.74-2.15l-14.79-35.37-.11-.85h-.25l-1.13-2.71-.57,2.71h-.72v1.16s0,.28-.25,1.03c-.19.6-.42,1.22-.69,1.85-.28.66-.61,1.45-1.02,2.38l-12.69,30.14c-.45.85-.99,1.46-1.61,1.82-.72.43-1.41.64-2.04.64h-1.65v2.86h13.45v-2.86h-1.65c-.22,0-.44-.07-.67-.23-.21-.14-.36-.33-.46-.61-.07-.2-.06-.49.03-.84l3.49-8.92h13.36l3.37,8.94c.23.79,0,1.04-.08,1.13-.44.48-.8.54-1.03.54h-1.65v2.86h14.78v-2.86h-1.6c-.64,0-1.34-.22-2.08-.65ZM324.77,268.64l5.25-13.42,5.06,13.42h-10.31Z" fill="url(#linear-gradient-8)"/>
      <path d="M400.7,247.84h2.21c.66,0,1.16.2,1.59.63.44.44.66.96.69,1.62v24.52l-30.48-32.52.17,2.05h-.6l.16,1.29c.33,2.69.49,4.97.49,6.79v28.77c0,.62-.21,1.12-.66,1.57-.45.45-.95.66-1.57.66h-2.21v2.86h13.73v-2.86h-2.21c-.62,0-1.12-.21-1.57-.66-.45-.45-.66-.95-.66-1.57l-.04-24.6,30.52,32.52-.17-2.05h.57l-.18-1.31c-.18-1.33-.31-2.55-.38-3.61-.07-1.06-.11-2.17-.11-3.33v-28.52c.03-.66.25-1.17.7-1.61.45-.44.95-.64,1.58-.64h2.15v-2.86h-13.73v2.86Z" fill="url(#linear-gradient-9)"/>
      <path d="M471.44,282.57c-.7-.41-1.28-1.13-1.74-2.15l-14.79-35.37-.11-.85h-.25l-1.13-2.71-.57,2.71h-.72v1.16s0,.28-.25,1.03c-.19.6-.42,1.22-.69,1.85-.28.66-.61,1.45-1.02,2.38l-12.69,30.14c-.45.85-.99,1.46-1.61,1.82-.72.43-1.41.64-2.04.64h-1.65v2.86h13.45v-2.86h-1.65c-.22,0-.44-.07-.67-.23-.21-.14-.36-.33-.46-.61-.07-.2-.06-.49.03-.84l3.49-8.92h13.36l3.37,8.94c.23.79,0,1.04-.08,1.13-.44.48-.8.54-1.03.54h-1.65v2.86h14.78v-2.86h-1.6c-.64,0-1.34-.22-2.08-.65ZM447.93,268.64l5.25-13.42,5.06,13.42h-10.31Z" fill="url(#linear-gradient-10)"/>
      <path d="M520.24,275.5c-.56,1.33-1.21,2.52-1.93,3.56-.67.96-1.52,1.68-2.59,2.2-1.07.53-2.52.8-4.28.8h-6.77v-31.86c.03-.66.27-1.2.74-1.67.47-.47.99-.69,1.65-.69h1.87v-2.86h-14.45v2.86h1.87c.66,0,1.18.22,1.65.69.48.48.71,1.01.74,1.68v30.66c-.03.67-.27,1.2-.74,1.67-.47.47-.99.69-1.65.69h-1.87v2.86h25.14v-.49l3.87-10.8h-2.96l-.3.71Z" fill="url(#linear-gradient-11)"/>
      <path d="M569.51,275.5c-.56,1.33-1.21,2.52-1.93,3.56-.67.96-1.52,1.68-2.59,2.2-1.07.53-2.52.8-4.28.8h-6.77v-14.26h8.21c.43,0,.75.14,1.05.45.31.32.45.67.45,1.11v1.99h2.86v-11.07h-2.86v1.93c0,.44-.14.79-.45,1.11s-.65.48-1.09.51h-8.18v-14.82h10.39c.42.09.78.29,1.09.62.42.43.62.91.62,1.49v2.15h2.86v-9.91l-1.62.72c-.14.06-.51.19-1.41.36-.75.14-1.57.27-2.45.38-.86.11-1.67.16-2.44.16h-17.35l.29,2.86h1.71c.66,0,1.2.22,1.69.7.48.47.71.99.71,1.64v30.68c-.03.67-.27,1.2-.74,1.67-.47.47-.99.69-1.65.69h-1.87v2.86h25.14v-.49l3.87-10.8h-2.96l-.3.71Z" fill="url(#linear-gradient-12)"/>
      <path d="M594.14,247.84h1.87c.66,0,1.18.22,1.65.69.48.48.71,1.01.74,1.68v30.66c-.03.67-.27,1.2-.74,1.67-.47.47-.99.69-1.65.69h-1.87v2.86h14.45v-2.86h-1.87c-.66,0-1.18-.22-1.65-.69-.48-.48-.71-1.01-.74-1.67v-30.66c.03-.66.27-1.2.74-1.67.47-.47.99-.69,1.65-.69h1.87v-2.86h-14.45v2.86Z" fill="url(#linear-gradient-13)"/>
      <path d="M688.49,264.81c-.75-.53-1.58-.97-2.47-1.32.13-.09.26-.19.39-.29,1.05-.82,1.92-1.9,2.59-3.22.67-1.32,1.01-2.87,1.01-4.6,0-2.07-.53-3.92-1.58-5.49-1.05-1.57-2.59-2.8-4.58-3.66-1.93-.83-4.29-1.26-7.03-1.26h-12.31l.29,2.86h1.71c.66,0,1.2.22,1.69.7.48.47.71.99.71,1.64v30.71c0,.65-.23,1.17-.71,1.64-.49.48-1.02.7-1.69.7h-1.71l-.29,2.86h14.8c2.88,0,5.4-.47,7.48-1.4,2.14-.96,3.79-2.34,4.91-4.09,1.11-1.75,1.68-3.8,1.68-6.08,0-2.02-.42-3.88-1.26-5.54-.84-1.66-2.06-3.06-3.64-4.16ZM682.76,252.04c.52,1.01.79,2.27.79,3.74,0,1.56-.26,2.81-.79,3.72-.53.92-1.17,1.59-1.96,2.04-.84.48-1.72.81-2.62.97-.96.17-1.84.26-2.62.26h-.73v-13.71h1.78c1.58,0,2.91.27,3.94.79.99.5,1.71,1.22,2.21,2.19ZM675.55,265.58c1.26,0,2.6.12,4,.34,1.33.22,2.58.64,3.72,1.24,1.07.56,1.95,1.41,2.63,2.52.68,1.1,1.02,2.6,1.02,4.44,0,1.65-.31,3.07-.92,4.23-.59,1.13-1.43,1.95-2.56,2.53-1.16.6-2.62.9-4.35.9h-4.28v-16.2h.73Z" fill="url(#linear-gradient-14)"/>
      <path d="M751.45,282.57c-.7-.41-1.28-1.13-1.74-2.15l-14.79-35.37-.11-.85h-.25l-1.13-2.71-.57,2.71h-.72v1.16s0,.28-.25,1.03c-.19.6-.42,1.22-.69,1.85-.28.66-.61,1.45-1.02,2.38l-12.69,30.14c-.45.85-.99,1.46-1.61,1.82-.72.43-1.41.64-2.04.64h-1.65v2.86h13.45v-2.86h-1.65c-.22,0-.44-.07-.67-.23-.21-.14-.36-.33-.46-.61-.07-.2-.06-.49.03-.84l3.49-8.92h13.36l3.37,8.94c.23.79,0,1.04-.08,1.13-.44.48-.8.54-1.03.54h-1.65v2.86h14.78v-2.86h-1.6c-.64,0-1.34-.22-2.08-.65ZM727.95,268.64l5.25-13.42,5.06,13.42h-10.31Z" fill="url(#linear-gradient-15)"/>
      <path d="M790.57,247.84h1.82c.24,0,.44.08.63.24.23.2.39.45.47.76.04.15.06.35-.14.65l-1.21,1.89h.16s-6.76,11.83-6.76,11.83l-7.34-13.67c-.17-.4-.14-.75.08-1.16.25-.45.52-.55.85-.55h1.87v-2.86h-15.94v2.86h1.93c.96,0,1.82.26,2.63.8.85.57,1.5,1.21,1.93,1.91l10.42,17.38v12.93c-.03.67-.27,1.2-.74,1.67-.47.47-.99.69-1.65.69h-1.88v2.86h14.39v-2.86h-1.82c-.66,0-1.2-.22-1.69-.7-.48-.47-.71-.99-.71-1.64v-12.93l10.72-17.34c.5-.72,1.2-1.38,2.07-1.96.81-.54,1.65-.8,2.57-.8h1.93v-2.86h-14.61v2.86Z" fill="url(#linear-gradient-16)"/>
      <path d="M876.37,267.73l-10.9-10.07c-.71-.68-1.2-1.4-1.45-2.16-.27-.82-.41-1.52-.41-2.1,0-1.4.51-2.59,1.55-3.65,1.04-1.06,2.38-1.57,4.11-1.57,1.47,0,2.68.41,3.69,1.26.95.79,1.41,1.87,1.41,3.3v1.16h2.81v-9.13h-3.38c-.18-.04-.37-.08-.57-.12-.68-.14-1.38-.24-2.1-.32-.73-.08-1.4-.12-2.03-.12-2.32,0-4.32.52-5.96,1.53-1.63,1.01-2.88,2.35-3.72,3.97-.82,1.6-1.23,3.29-1.23,5.02,0,1.2.24,2.5.73,3.85.5,1.41,1.39,2.71,2.63,3.87l10.66,9.88c.58.52,1.01,1.12,1.31,1.83.31.72.46,1.55.46,2.46,0,1.89-.59,3.34-1.81,4.43-1.27,1.14-2.75,1.74-4.52,1.84-1.41.07-2.64-.2-3.73-.82-1.07-.61-1.87-1.48-2.43-2.67-.57-1.21-.78-2.66-.62-4.33l.12-1.27h-2.62l-.26.8c-.28.87-.5,1.83-.65,2.87-.15,1.03-.23,2.03-.23,2.97s.06,1.77.19,2.43l.07.35.25.25c.84.84,1.91,1.54,3.18,2.05,1.2.49,2.47.84,3.76,1.04,1.28.2,2.36.29,3.31.29,3.49,0,6.31-1.09,8.39-3.23,2.07-2.13,3.13-4.92,3.13-8.29,0-1.22-.2-2.49-.61-3.78-.43-1.37-1.28-2.65-2.54-3.83Z" fill="url(#linear-gradient-17)"/>
      <path d="M924.88,246.37c-1.85-.93-4.08-1.4-6.61-1.4h-15.74l.29,2.86h1.71c.66,0,1.2.22,1.69.7.48.47.71.99.71,1.64v30.68c-.03.67-.27,1.2-.74,1.67-.47.47-.99.69-1.65.69h-1.87v2.86h14.45v-2.86h-1.87c-.66,0-1.18-.22-1.65-.69-.48-.48-.71-1.01-.74-1.67v-13.8l.19.1c1.54.81,3.15,1.28,4.8,1.4,1.64.12,3.25-.07,4.8-.58,1.54-.51,2.93-1.28,4.15-2.29,1.23-1.02,2.23-2.3,2.96-3.79.74-1.5,1.12-3.21,1.12-5.08,0-2.41-.52-4.54-1.54-6.31-1.03-1.8-2.52-3.19-4.42-4.14ZM912.82,264.31v-15.36h5.22c2.02,0,3.53.62,4.6,1.91,1.11,1.34,1.7,3.16,1.73,5.49.03.51.02,1.04-.05,1.58-.07.55-.15,1-.24,1.33-.42,1.39-1.03,2.47-1.82,3.21-.82.77-1.69,1.3-2.61,1.6-.99.32-1.93.51-2.81.56-.89.05-1.94-.01-3.12-.18l-.9-.13Z" fill="url(#linear-gradient-18)"/>
      <path d="M985.08,282.57c-.7-.41-1.28-1.13-1.74-2.15l-14.79-35.37-.11-.85h-.25l-1.13-2.71-.57,2.71h-.72v1.16s0,.28-.25,1.03c-.19.6-.42,1.22-.69,1.85-.28.66-.61,1.45-1.02,2.38l-12.69,30.14c-.45.85-.99,1.46-1.61,1.82-.72.43-1.41.64-2.04.64h-1.65v2.86h13.45v-2.86h-1.65c-.22,0-.44-.07-.67-.23-.21-.14-.36-.33-.46-.61-.07-.2-.06-.49.03-.84l3.49-8.92h13.36l3.37,8.94c.23.79,0,1.04-.08,1.13-.44.48-.8.54-1.03.54h-1.65v2.86h14.78v-2.86h-1.6c-.64,0-1.34-.22-2.08-.65ZM961.57,268.64l5.25-13.42,5.06,13.42h-10.31Z" fill="url(#linear-gradient-19)"/>
    </g>
  </g>
  <g id="Layer_2-2" data-name="Layer 2">
    <path d="M69.81,70.56c.1-3.64-2.56-5.22-4.77-7.13-7.13-6.3-10.73-13.93-8.61-23.57.79-3.49,3.2-5.9,6.05-7.73,2.21-1.43,5.17-.69,6.79,1.43,1.38,1.72,1.13,4.43-.54,6.3-1.33,1.48-3.35,1.67-4.58.49-.69-.64-.89-1.33-.39-2.21.39-.69.89-1.23,1.77-.84.49.2,1.03.79,1.28-.2.25-.89.05-1.62-.84-2.07-1.23-.64-2.41-.34-3.49.34-1.23.74-1.67,2.07-1.48,3.4.34,2.41,1.82,3.99,4.08,4.77,2.07.69,3.84,0,5.36-1.53,2.66-2.71,3.2-5.31,1.57-8.17-1.82-3.3-5.46-4.97-8.86-4.13-5.56,1.43-9.1,6.3-9.45,13.09-.1,2.02-.34,4.08,0,6.15.25,1.53-.1,2.9-1.28,4.03-.69.69-1.23,1.57-1.87,2.31-10.68,12.2-9.5,25.39-3.1,38.92,2.46,5.17,6.3,9.35,10.53,13.14,11.02,9.84,20.27,21.01,25.19,35.13,6.15,17.71,4.63,34.35-6.74,49.8-6.3,8.56-13.24,16.73-18.94,25.69-5.9,9.3-10.09,19.24-11.47,30.26-1.48,11.46,1.33,21.95,7.43,31.59,1.82,2.8,3.84,5.51,5.95,8.12,5.07,6.2,12.15,8.37,19.68,9.3,5.46.64,10.92.3,16.39-.44,8.12-1.13,18.11-12.89,14.76-22.29-.34-.93-.54-1.97-1.13-2.66-1.53-1.87-.39-2.95.93-4.08,1.62-1.38,2.31.34,3.15,1.13,2.71,2.56,3.54,6,4.13,9.5,1.48,8.12-.2,15.6-5.86,21.6-2.76,2.9-6.64,4.58-10.43,6.05-6.05,2.31-12.3,2.95-18.7,2.95-8.27,0-16.09-2.26-23.47-5.61-6.79-3.1-12.7-7.48-17.66-13.33-5.66-6.64-9.5-14.07-12.25-22.29-2.02-6.05-2.85-12.2-2.95-18.5-.15-5.95-.25-11.96.49-17.86.74-5.71,1.18-11.46,2.61-17.07,1.92-7.87,5.22-15.2,8.22-22.63,1.43-3.54,2.56-7.23,4.18-10.73,3.89-8.46,3.1-16.88.05-25.29-2.61-7.18-6.5-13.73-10.78-20.03-5.61-8.17-11.07-16.43-15.8-25.14-4.97-9.2-6.2-19.04-5.36-29.28.49-5.71,1.53-11.37,2.71-16.98,1.72-8.27,6.5-14.71,12.15-20.67,5.61-5.86,11.47-11.46,17.76-16.63,1.87-1.53,2.46-3.3,2.41-5.76-.1-2.71-.98-5.81,2.07-8.37-.15,2.17-.54,3.94.25,5.66.64,1.48,1.38,3.05,3.3,2.51,1.77-.54,3.49-1.62,3.3-3.84-.15-1.72-.54-3.49-2.51-4.28,1.33-1.28,3-.49,3.69.2,1.48,1.43,3.49,1.48,4.97,2.71.64.54,1.87.64,2.46-.1.64-.74-.25-1.53-.64-2.12-1.43-2.02-1.53-5.12-.1-7.38.79,4.67,2.9,6.89,7.53,7.77,2.56.49,5.12.84,7.53,1.87.44.2.98.39,1.38,0,.54-.54-.25-.79-.34-1.23-1.57-5.36.39-9.94,3.35-14.61.79,1.33.49,2.56.49,3.69-.2,5.86,2.71,10.68,5.61,15.35,1.18,1.92,3.74,2.07,6.25,1.57-1.57,4.03-1.28,7.73.64,11.22,1.92,3.54,5.81,4.03,9.4,5.46-4.43,5.41-3,11.17-1.33,16.93.3,1.03.34,2.02.2,3.1-.64,5.56-.89,11.12,1.18,16.43.74,1.92,2.26,3.59,3.44,5.31,3.59,5.27,7.23,10.53,10.87,15.8.34.49.74.93.89,1.48.2.84.49,1.77-.2,2.56-.74.84-1.57.2-2.26-.05-2.8-1.18-5.36-1.53-7.48,1.23-.93,1.23-1.38-.05-1.82-.54-3.15-3.44-6.25-6.94-9.45-10.33-3.2-3.44-6.79-6.4-10.58-9.15-1.62-1.18-2.9-2.31-2.66-4.53.05-.59.1-1.62-.84-1.43-2.76.49-2.41-1.53-2.46-3-.1-1.67-.39-2.46-2.26-1.62-.98.44-2.07.15-3.1-.2-2.02-.74-3.89-.64-5.61,1.28h0ZM137.77,71.74c1.23-4.63,3.94-7.97,6.64-11.32,3.1-3.44,5.31-7.33,6.25-12.01,1.38-6.84-.3-12.45-5.81-16.83-3.35-2.66-8.66-.54-9.3,3.74-.34,2.21,2.46,5.22,4.72,5.02,1.18-.1,1.72-.89,2.02-1.87.15-.59.15-1.18-.69-1.28-.93-.15-1.82-.44-1.87-1.57,0-.69.54-.93,1.13-1.08,1.18-.3,1.87.3,2.46,1.18,1.48,2.17,1.18,4.18-.79,5.56-2.76,1.87-5.81,1.67-7.28-.44-2.12-3.05-1.82-7.53.74-10.53,2.17-2.56,5.71-3.15,9.2-1.57,2.12.98,3.69,2.46,5.02,4.28,3.2,4.38,3.25,9.35,2.66,14.37-.25,2.21-.34,4.08,2.12,5.27,1.38.64,2.26,2.12,3,3.49,4.87,8.86,6.99,18.4,5.95,28.39-.84,8.32-5.61,14.86-11.32,20.72-6.64,6.79-13.97,12.89-19.53,20.72-9.79,13.78-13.97,28.64-9.15,45.42,2.95,10.28,8.27,19.09,14.76,27.46,6.54,8.41,13.33,16.63,18.01,26.33,7.58,15.7,9.69,31.84,4.03,48.57-4.92,14.66-21.11,23.37-35.97,19.68-2.12-.54-4.38-2.66-6.3-1.48-1.77,1.08-2.66,3.64-4.08,5.41-1.13,1.38-.3,2.17.74,2.51,5.07,1.72,10.23,3.44,15.5,3.79,4.23.25,8.61.34,12.94-.34,8.22-1.33,15.35-4.53,21.55-10.04,7.48-6.69,12.35-15.16,15.65-24.41,4.03-11.32,5.9-23.03,4.97-35.13-.49-6.54-1.97-12.99-3.89-19.19-2.56-8.22-6.25-16.09-9.79-23.96-3.69-8.12-6.1-16.63-5.71-25.64.49-10.14,4.23-19.09,9.94-27.31,4.48-6.5,9.15-12.79,12.89-19.73,8.17-15.11,12.06-31,7.92-48.02-2.41-10.09-5.56-20.08-13.29-27.7-5.46-5.41-11.17-10.68-17.57-14.96-3.64-2.46-5.17-5.31-4.82-9.6.2-2.26-.2-4.63-2.56-6.4-.05,2.07.1,3.89-.49,5.61-.44,1.33-1.18,2.76-2.76,2.76-1.67.05-2.02-1.62-2.41-2.95-.69-2.31.34-4.18,1.87-6-4.48.3-7.73,3.59-12.2,4.03,1.67-3.89,3.59-7.48,1.67-11.71-.89,9.4-10.09,12.45-15.84,12.3,1.87-4.97.44-13.04-4.18-14.71.1,7.43-3.15,19.49-13.14,19.68.34.64.64,1.33.98,1.92,2.9,4.97.74,9.2-2.71,11.71-1.33.98-3,1.62-4.53,2.31-.89.39-1.23.69-.69,1.77,1.92,3.74,1.77,7.58.54,11.46-.64,2.07-1.23,4.28-.69,6.3,1.43,5.46,1.23,10.87.44,16.34-.2,1.33.15,2.36.93,3.4,2.17,2.85,4.28,5.76,6.3,8.76.84,1.23,1.48,1.62,2.8.49,2.07-1.72,4.23-3.3,6.5-4.82,1.33-.89,2.17-1.87,2.02-3.59-.05-.64-.15-1.92.49-1.97,3.15-.2,2.41-2.76,3-4.53.2-.54-.15-1.43,1.03-1.28,3.44.39,7.38-.69,9.94,3.25h0ZM54.81,52.06c-5.66,8.71-10.63,16.98-8.51,27.65,1.87,9.64,5.36,18.3,12.74,25.1,7.82,7.23,15.3,14.81,21.01,23.91,6.2,9.99,10.43,20.57,9.5,32.62-.74,9.25-3.89,17.81-7.92,26.13-.49,1.03-1.33,1.97-1.23,3.54,1.82-1.43,2.56-3.25,3.44-4.97,5.17-9.99,8.22-20.62,10.04-31.64,2.56-15.7-1.72-29.03-13.09-40.3-9.3-9.2-17.07-19.63-23.52-31.05-4.38-7.68-4.48-15.2.64-22.59.54-.79.69-1.33-.1-2.07-1.67-1.57-2.56-3.59-3-6.35h0ZM176.89,141.17c.1.15.25.3.49.54,2.51-1.43,4.92-3,7.48-4.23,1.62-.79,2.46-1.67,2.12-3.49-.34-1.97.39-2.9,2.51-3.15,1.38-.2,3.35-.2,3.69-2.36.3-1.92.89-3.79.93-5.71.05-2.46,1.28-3.74,3.25-4.97,5.95-3.69,5.86-3.79,4.67-10.48-.05-.1,0-.2-.05-.25-1.03-2.07.2-3.44,1.57-4.58,4.97-4.03,5.02-4.03,2.95-10.04-.25-.59-.34-1.23-.64-1.82-.84-1.67-.3-2.9.89-4.28.89-1.08,3.15-1.18,2.76-2.8-.3-1.28-1.72-2.31-2.66-3.44-.05-.1-.1-.15-.15-.2-3.05-3.4-3.15-3.89-.93-7.87.98-1.82,1.28-3.54-.39-5.22-.93-.89-1.53-2.12-2.36-3.1-.89-1.03-.98-1.72,0-2.9,2.02-2.51,1.53-4.53-1.03-6.2-3.3-2.12-3.35-2.12-1.97-7.28.44-1.53.39-2.66-1.43-3.3-1.57-.54-3.1-1.43-4.58-2.21-1.38-.74-2.36-1.62-2.31-3.4.1-3.59-1.43-5.9-5.22-6.5-.59-.05-1.13-.59-1.72-.79-1.92-.54-2.85-1.57-2.46-3.69.1-.64.49-1.67-.98-1.67-1.97,0-3.89-.49-5.81-.49s-3-.79-3.54-2.61c-.59-2.07-1.33-4.13-2.07-6.4-1.18,1.77-2.12,3.4-3.25,4.87-2.02,2.76-1.67,3.99.98,6,3.44,2.61,6.84,5.31,10.33,7.92,18.3,13.73,24.26,32.72,22.54,54.57-1.13,14.32-7.18,27.06-15.06,38.92-2.8,4.23-5.71,8.41-8.56,12.6h0ZM131.57,192.4c-.64-1.13-1.28-2.21-1.97-3.35-3.54-5.66-6.59-11.51-8.32-17.96-2.36-8.66-3.89-17.47-.34-26.23,4.82-11.81,11.27-22.49,20.67-31.29,3.15-2.95,6.15-5.95,9.15-8.96,5.27-5.36,9.35-11.37,10.04-19.14.64-7.09.34-14.07-1.92-20.86-1.33-3.99-3.4-7.58-6.2-10.87-.64,1.82-1.03,3.44-2.12,4.87-2.61,3.49-1.23,6.5,3.1,6.99.49.05.93.1,1.62.2-.44,1.08-.79,1.97-1.18,2.85-1.08,2.61-.44,4.58,2.02,5.81.1.05.1.2.2.39-1.13.93-2.21,1.92-3.4,2.8-.84.64-1.18,1.23-.15,1.87,2.76,1.62,1.23,2.85-.39,3.99-1.62,1.13-2.12,2.41-1.08,4.28.64,1.13,1.28,2.41,1.33,3.99-1.18,0-2.26.1-3.3,0-1.82-.15-1.87.64-1.28,2.02.49,1.18.89,2.46,1.38,3.94h-3.89c-1.18,0-1.87.34-1.72,1.72.1.89-.1,1.82,0,2.71.15,1.28-.39,1.62-1.62,1.77-3.4.34-3.4.44-3.25,3.89.05.39,0,.84.05,1.23.1.84-.2,1.03-1.08,1.08-1.33.05-3.15-1.18-3.84-.05-.64.98,0,2.8.05,4.28v2.31c-1.87-.39-3.54-.79-5.31-1.18,0,2.07-.1,4.03.05,5.95.1,1.53-.54,1.72-1.72,1.38-.54-.15-1.13-.2-1.67-.39-1.87-.69-2.46-.1-2.26,1.82.15,1.62.69,3.69-.05,4.77-.89,1.33-2.95-.15-4.53.05-.1,0-.15.1-.34.2.3.79.59,1.62.89,2.46,1.28,3.4,1.33,3.49-1.97,5.02-1.67.79-2.41,1.57-1.77,3.64.39,1.33,2.9,3.44-.49,4.58-.15,0-.05.74,0,1.13.84,12.15,3.44,23.91,8.76,34.99,2.02,4.18,4.23,8.27,7.87,11.32h0ZM16.92,43.84c1.33,2.07-.2,3.44-1.38,4.43-3.64,3.05-6.54,6.74-9.45,10.43-1.67,2.12-3.74,4.08-4.13,6.99-.2,1.43-.64,3.1.44,4.18,1.28,1.28,2.02-1.08,3.44-.98-.59,3.79-2.21,7.09-3.99,10.28-2.36,4.23-2.26,8.51-.89,12.94.34,1.08,1.08,1.92,2.17,2.12,1.23.25,1.72-.89,2.07-2.12.74,1.08.49,1.97.39,2.85-.25,3-1.13,5.95-.49,9,.93,4.33,1.87,8.71,5.56,11.76,1.08.89,2.12,1.57,3.1-.2.84,1.13,1.28,2.36,1.28,3.69.05,5.07,1.92,9.6,4.48,13.88.69,1.13,1.38,1.28,2.17.05.25-.34.15-1.03,1.13-.89.59,4.13,2.36,7.77,5.31,10.78.59.64,1.13,1.97,2.46.64.98-1.03,1.48-1.87.3-3.25-8.76-10.19-14.17-22.34-19.83-34.3-4.08-8.56-4.13-17.81-3.59-27.01.89-14.17,5.31-26.87,15.75-37,4.48-4.33,9.1-8.46,14.02-12.3,2.31-1.77,4.28-3.84,5.02-6.89-1.97,1.72-3.64,3.69-5.86,5.07-4.97,3.05-10.53,4.58-16.14,5.76-4.28.89-7.63,5.61-7.58,9.74.05,1.13-.44,2.61,1.53,2.71,1.67.1,2.61-.59,2.71-2.36h0ZM106.87,273.63c-.05-6.59,1.97-9.64,7.28-10.78,1.57-.34,3.1-.05,4.63.15.84.1,1.87.25,2.31-.84.39-.89.25-1.77-.39-2.51-.49-.54-1.03-1.03-1.62-1.48-5.95-4.23-13.43-2.85-17.27,3.35-4.97,8.02-4.77,16.19-.39,24.41,2.02,3.84,2.95,3.99,5.36.3,1.08-1.67,2.66-3.49,1.57-5.76-1.08-2.17-1.57-4.43-1.48-6.84h0ZM90.23,100.18c.84.59,1.48.84,2.51.39,2.31-.98,4.72-1.03,7.09.05,1.87.84,1.87-1.03,2.66-1.72.59-.54,1.18-1.18.15-2.17-1.77-1.67-3.3-3.54-4.92-5.41-.69-.74-1.08-.69-1.62.15-1.92,2.9-3.89,5.81-5.86,8.71h0ZM194.99,165.28c-2.17-2.26-4.48-3.94-6.74-5.81-2.46-2.02-2.36-2.21.2-4.08,1.87-1.43,3.44-3.2,5.46-5.07-3.4-.3-6.4-.54-9.55-.84,1.67-3,1.97-6.4,3.94-9.1.34-.49.05-.89,0-1.33-.05-.44-.49-.3-.79-.15-3.74,1.62-7.53,3.2-11.27,4.82-.34.2-.64.74-.89,1.13-6.45,9.84-7.92,20.67-5.95,32.03.54,3,1.33,5.95,3.49,8.66,2.9-5.51,5.36-10.92,6.69-16.78,1.53-6.64.25-13.19-1.13-19.68-.15-.54-.84-1.33.2-1.62,1.03-.3.93.79,1.08,1.28,1.72,5.46,2.36,11.07,1.53,16.73-1.18,7.87-3.99,15.16-7.77,22.09-.3.59-1.33,1.23-.15,2.07,3,2.17,6.25,3.94,9.64,5.9-.25-4.43-1.33-8.37-2.17-12.35-.3-1.33.15-1.72,1.33-1.92,2.71-.44,5.41-.93,8.37-1.43-1.33-2.61-2.46-5.17-3.89-7.58-.89-1.57-.39-2.8.89-3.1,2.85-.69,4.48-3.3,7.48-3.89h0ZM174.72,157.31c1.03,5.76,1.92,11.02-1.38,16.24-1.18-5.51-1.28-10.78,1.38-16.24ZM31.68,145.94c-1.48.1-1.97.84-2.61,1.33-5.95,4.92-9.35,11.46-11.22,18.8-.69,2.66-.74,5.41-.25,8.17.84,4.58,3.35,8.27,6.2,11.76,1.72,2.07,4.03,3.74,6.74,4.13,1.97.3,4.08-.39,4.97-2.61,1.03-2.46.98-4.97-.69-7.18-5.66-7.53-6.5-16.19-6.05-25.14.15-3.2,1.57-6.05,2.9-9.25h0ZM37.78,182.46c7.38-12.15,5.56-24.65-4.28-36.95-4.18,6.74-5.46,25.93,4.28,36.95h0ZM36.75,171.38c-3.05-4.18-3.1-8.66-1.62-13.73,3.94,5.31,4.38,9.6,1.62,13.73ZM15.49,166.76c1.43-6.69,5.46-11.96,9.15-17.42.1-.15.2-.3.25-.44,1.33-2.95.79-5.17-1.57-6.25-3.54-1.62-6.84-.89-8.27,1.82-1.72,3.2-1.57,6.69-1.77,10.19-.2,4.23,1.38,8.02,2.21,12.1h0Z" fill="url(#linear-gradient-20)"/>
  </g>
</svg>