<?xml version="1.0" encoding="UTF-8"?>
<svg id="Layer_2" data-name="Layer 2" xmlns="http://www.w3.org/2000/svg" xmlns:xlink="http://www.w3.org/1999/xlink" viewBox="0 0 558.02 215.04">
  <defs>
    <linearGradient id="linear-gradient" x1="200.39" y1="-16.41" x2="200.39" y2="221" gradientUnits="userSpaceOnUse">
      <stop offset="0" stop-color="#f5e39a"/>
      <stop offset="1" stop-color="#e0c373"/>
    </linearGradient>
    <linearGradient id="linear-gradient-2" x1="271.6" y1="-16.41" x2="271.6" y2="221" xlink:href="#linear-gradient"/>
    <linearGradient id="linear-gradient-3" x1="342.35" y1="-16.41" x2="342.35" y2="221" xlink:href="#linear-gradient"/>
    <linearGradient id="linear-gradient-4" x1="395.18" y1="-16.41" x2="395.18" y2="221" xlink:href="#linear-gradient"/>
    <linearGradient id="linear-gradient-5" x1="460.33" y1="-16.41" x2="460.33" y2="221" xlink:href="#linear-gradient"/>
    <linearGradient id="linear-gradient-6" x1="524.67" y1="-16.41" x2="524.67" y2="221" xlink:href="#linear-gradient"/>
    <linearGradient id="linear-gradient-7" x1="188.93" x2="188.93" y2="221" xlink:href="#linear-gradient"/>
    <linearGradient id="linear-gradient-8" x1="219.87" y1="-16.41" x2="219.87" y2="221" xlink:href="#linear-gradient"/>
    <linearGradient id="linear-gradient-9" x1="251.17" y1="-16.41" x2="251.17" y2="221" xlink:href="#linear-gradient"/>
    <linearGradient id="linear-gradient-10" x1="282.08" y1="-16.41" x2="282.08" y2="221" xlink:href="#linear-gradient"/>
    <linearGradient id="linear-gradient-11" x1="310.03" y1="-16.41" x2="310.03" y2="221" xlink:href="#linear-gradient"/>
    <linearGradient id="linear-gradient-12" x1="334.89" y1="-16.41" x2="334.89" y2="220.98" xlink:href="#linear-gradient"/>
    <linearGradient id="linear-gradient-13" x1="356.69" y1="-16.41" x2="356.69" y2="221" xlink:href="#linear-gradient"/>
    <linearGradient id="linear-gradient-14" x1="395.88" y1="-16.41" x2="395.88" y2="221" xlink:href="#linear-gradient"/>
    <linearGradient id="linear-gradient-15" x1="423.52" y1="-16.41" x2="423.52" y2="221" xlink:href="#linear-gradient"/>
    <linearGradient id="linear-gradient-16" x1="449.51" y1="-16.41" x2="449.51" y2="221" xlink:href="#linear-gradient"/>
    <linearGradient id="linear-gradient-17" x1="491.57" y1="-16.41" x2="491.57" y2="221" xlink:href="#linear-gradient"/>
    <linearGradient id="linear-gradient-18" x1="515.96" y1="-16.41" x2="515.96" y2="221" xlink:href="#linear-gradient"/>
    <linearGradient id="linear-gradient-19" x1="541.53" y1="-16.41" x2="541.53" y2="221" xlink:href="#linear-gradient"/>
    <linearGradient id="linear-gradient-20" x1="93.23" y1="-36.11" x2="45.47" y2="212.79" xlink:href="#linear-gradient"/>
    <linearGradient id="linear-gradient-21" x1="306.84" y1="-16.41" x2="306.84" y2="221" xlink:href="#linear-gradient"/>
    <linearGradient id="linear-gradient-22" x1="454.03" y1="-16.41" x2="454.03" y2="221" xlink:href="#linear-gradient"/>
  </defs>
  <g id="Text">
    <path d="M221.76,89.42c0-2.35-.4-4.82-1.18-7.33-.8-2.55-2.4-4.97-4.78-7.18l-22.74-21.01c-1.69-1.62-2.87-3.38-3.49-5.25-.63-1.89-.95-3.56-.95-4.95,0-3.37,1.27-6.36,3.76-8.89,2.49-2.53,5.81-3.81,9.86-3.81,3.46,0,6.44,1.02,8.86,3.04,2.42,2.02,3.6,4.73,3.6,8.27v.58h2.2v-15.37h-5.42c-.43-.09-.87-.18-1.34-.28-1.35-.27-2.77-.49-4.21-.64-1.44-.16-2.8-.23-4.05-.23-4.48,0-8.33.98-11.45,2.92-3.12,1.94-5.5,4.48-7.08,7.56-1.57,3.07-2.37,6.31-2.37,9.62,0,2.29.48,4.79,1.42,7.42.95,2.66,2.63,5.12,5,7.33l22.18,20.56c1.39,1.25,2.47,2.75,3.2,4.47.74,1.73,1.11,3.7,1.11,5.84,0,4.43-1.47,7.99-4.37,10.59-2.93,2.63-6.48,4.08-10.55,4.3-3.26.14-6.2-.51-8.75-1.95-2.54-1.43-4.5-3.58-5.82-6.38-1.33-2.82-1.82-6.17-1.45-9.97l.06-.64h-2.11l-.13.41c-.55,1.72-.98,3.63-1.29,5.69-.31,2.06-.47,4.05-.47,5.92s.12,3.47.36,4.73l.03.18.13.13c1.58,1.59,3.61,2.89,6.02,3.88,2.37.97,4.86,1.66,7.41,2.06,2.53.39,4.75.58,6.61.58,6.75,0,12.2-2.08,16.18-6.18,3.98-4.1,6-9.48,6-16Z" fill="url(#linear-gradient)"/>
    <path d="M256.28,107.85h-1.45c-.66,0-1.29-.2-1.94-.63-.63-.41-1.08-.99-1.35-1.77-.23-.65-.22-1.44.03-2.37l6.44-16.45h25.12l6.21,16.47c.43,1.46.28,2.56-.44,3.35-.85.94-1.78,1.39-2.84,1.39h-1.45v2.13h22.79v-2.13h-1.35c-1.36,0-2.82-.44-4.32-1.31-1.49-.86-2.7-2.34-3.6-4.39l-25.72-61.51-.06-.43h-.12l-.57-1.37-.29,1.37h-.98v.58c0,.31-.09.94-.5,2.22-.35,1.07-.76,2.19-1.23,3.32-.48,1.15-1.07,2.52-1.78,4.13l-22.03,52.33c-.91,1.72-2.03,2.99-3.33,3.76-1.47.87-2.91,1.31-4.27,1.31h-1.45v2.13h20.48v-2.13ZM259.6,82.58l11.21-28.64,10.79,28.64h-22.01Z" fill="url(#linear-gradient-2)"/>
    <path d="M363.46,93.6c-1.01,2.39-2.18,4.55-3.5,6.43-1.28,1.83-2.97,3.27-5.02,4.28-2.06,1.01-4.77,1.53-8.05,1.53h-13.16v-56.68c.06-1.52.62-2.79,1.7-3.87,1.08-1.08,2.34-1.61,3.86-1.61h1.83v-2.13h-22.21v2.13h1.83c1.52,0,2.78.53,3.86,1.61s1.64,2.35,1.7,3.87v53.21c-.06,1.52-.62,2.79-1.7,3.88-1.08,1.08-2.34,1.61-3.86,1.61h-1.83v2.13h40.87l5.99-16.73h-2.18l-.15.36Z" fill="url(#linear-gradient-3)"/>
    <path d="M400.59,106.25c-1.09-1.09-1.64-2.35-1.7-3.88v-56.87h17.47c1.4.06,2.57.57,3.59,1.56,1.01.99,1.51,2.17,1.51,3.62v2.16l2.13.21v-13.65l-.82.37c-.53.24-1.46.48-2.75.73-1.32.25-2.78.48-4.33.67-1.54.19-3.02.28-4.4.28h-32.19c-1.32,0-2.78-.1-4.35-.28-1.59-.19-3.04-.41-4.33-.67-1.27-.25-2.22-.5-2.82-.74l-.8-.32v13.62l2.13-.21v-2.16c0-1.45.48-2.64,1.46-3.62.99-.99,2.18-1.5,3.64-1.56h17.47v56.87c-.06,1.52-.62,2.79-1.7,3.88-1.08,1.08-2.34,1.61-3.86,1.61h-1.83v2.13h22.21v-2.13h-1.83c-1.52,0-2.78-.53-3.86-1.61Z" fill="url(#linear-gradient-4)"/>
    <path d="M474.79,107.85h-1.45v2.13h22.79v-2.13h-1.35c-1.36,0-2.82-.44-4.32-1.31-1.49-.86-2.7-2.34-3.6-4.39l-25.72-61.51-.06-.43h-.12l-.57-1.37-.29,1.37h-.98v.58c0,.31-.09.94-.5,2.22-.35,1.07-.76,2.19-1.23,3.32-.48,1.15-1.07,2.52-1.78,4.13l-22.03,52.33c-.91,1.72-2.03,2.99-3.33,3.76-1.47.87-2.91,1.31-4.27,1.31h-1.45v2.13h20.48v-2.13h-1.45c-.66,0-1.29-.2-1.94-.63-.63-.41-1.08-.99-1.35-1.77-.23-.65-.22-1.44.03-2.37l6.44-16.45h25.12l6.21,16.47c.43,1.46.28,2.56-.44,3.35-.85.94-1.78,1.39-2.84,1.39ZM448.33,82.58l11.21-28.64,10.79,28.64h-22.01Z" fill="url(#linear-gradient-5)"/>
    <path d="M535.52,41.55v2.13h1.74c.76,0,1.42.25,2.02.77.62.54,1.03,1.2,1.26,2.02.21.77.08,1.51-.41,2.27l-.61.96h.11s-14.27,24.98-14.27,24.98l-13.98-26.03c-.48-1.12-.42-2.2.2-3.29.63-1.13,1.52-1.67,2.71-1.67h1.83v-2.13h-24.81v2.13h1.93c1.92,0,3.72.55,5.35,1.63,1.65,1.1,2.92,2.36,3.77,3.76l.16.27h.06s18.05,30.21,18.05,30.21v22.83c-.06,1.52-.62,2.79-1.7,3.88-1.08,1.08-2.34,1.61-3.86,1.61h-1.83v2.13h22.11v-2.13h-1.74c-1.52,0-2.81-.53-3.92-1.61-1.11-1.08-1.65-2.34-1.65-3.86v-22.83l18.8-30.42.02-.03c.98-1.41,2.31-2.68,3.98-3.79,1.62-1.08,3.39-1.63,5.25-1.63h1.93v-2.13h-22.5Z" fill="url(#linear-gradient-6)"/>
    <g>
      <path d="M191.92,135.2h.95c.33,0,.61.11.85.35.24.24.36.5.36.83v6.86h-10.29v-6.85c.01-.34.13-.6.37-.84.24-.24.5-.35.83-.35h.95v-1.45h-7.3v1.45h.95c.33,0,.6.11.83.35.24.24.36.51.38.85v15.49c-.02.34-.14.61-.37.85-.24.24-.5.35-.83.35h-.95v1.45h7.3v-1.45h-.95c-.33,0-.6-.11-.83-.35-.24-.24-.36-.51-.37-.85v-6.63h10.29v6.64c0,.33-.11.59-.36.83-.25.24-.52.35-.85.35h-.95v1.45h7.3v-1.45h-.95c-.33,0-.6-.11-.83-.35-.24-.24-.36-.51-.38-.85v-15.49c.02-.34.14-.61.38-.85.24-.24.5-.35.83-.35h.95v-1.45h-7.3v1.45Z" fill="url(#linear-gradient-7)"/>
      <path d="M228.85,152.74c-.35-.21-.65-.57-.88-1.09l-7.47-17.87-.06-.43h-.12l-.57-1.37-.29,1.37h-.36v.58s0,.14-.13.52c-.1.3-.21.61-.35.94-.14.33-.31.73-.52,1.2l-6.41,15.23c-.23.43-.5.74-.81.92-.36.22-.71.32-1.03.32h-.83v1.45h6.79v-1.45h-.83c-.11,0-.22-.04-.34-.12-.11-.07-.18-.17-.23-.31-.04-.1-.03-.25.02-.43l1.76-4.51h6.75l1.7,4.51c.12.4,0,.53-.04.57-.22.24-.4.27-.52.27h-.83v1.45h7.47v-1.45h-.81c-.32,0-.68-.11-1.05-.33ZM216.98,145.7l2.65-6.78,2.55,6.78h-5.21Z" fill="url(#linear-gradient-8)"/>
      <path d="M255.33,135.2h1.12c.33,0,.59.1.8.32.22.22.33.48.35.82v12.39l-15.39-16.43.09,1.04h-.3l.08.65c.16,1.36.25,2.51.25,3.43v14.53c0,.31-.11.56-.33.79-.23.23-.48.33-.79.33h-1.12v1.45h6.93v-1.45h-1.12c-.31,0-.56-.11-.79-.33-.23-.23-.33-.48-.33-.79l-.02-12.43,15.42,16.42-.09-1.03h.29l-.09-.66c-.09-.67-.16-1.29-.19-1.82-.04-.54-.05-1.1-.05-1.68v-14.41c.01-.33.13-.59.36-.81.23-.22.48-.32.8-.32h1.09v-1.45h-6.93v1.45Z" fill="url(#linear-gradient-9)"/>
      <path d="M291.06,152.74c-.35-.21-.65-.57-.88-1.09l-7.47-17.87-.06-.43h-.12l-.57-1.37-.29,1.37h-.36v.58s0,.14-.13.52c-.1.3-.21.61-.35.94-.14.33-.31.73-.52,1.2l-6.41,15.23c-.23.43-.5.74-.81.92-.36.22-.71.32-1.03.32h-.83v1.45h6.79v-1.45h-.83c-.11,0-.22-.04-.34-.12-.11-.07-.18-.17-.23-.31-.04-.1-.03-.25.02-.43l1.76-4.51h6.75l1.7,4.51c.12.4,0,.53-.04.57-.22.24-.4.27-.52.27h-.83v1.45h7.47v-1.45h-.81c-.32,0-.68-.11-1.05-.33ZM279.19,145.7l2.65-6.78,2.55,6.78h-5.21Z" fill="url(#linear-gradient-10)"/>
      <path d="M315.71,149.17c-.28.67-.61,1.27-.98,1.8-.34.48-.77.85-1.31,1.11-.54.27-1.27.4-2.16.4h-3.42v-16.09c.01-.34.13-.6.37-.84.24-.24.5-.35.83-.35h.95v-1.45h-7.3v1.45h.95c.33,0,.6.11.83.35.24.24.36.51.38.85v15.49c-.02.34-.14.61-.37.85-.24.24-.5.35-.83.35h-.95v1.45h12.7v-.25l1.95-5.45h-1.5l-.15.36Z" fill="url(#linear-gradient-11)"/>
      <path d="M340.6,149.17c-.28.67-.61,1.27-.98,1.8-.34.48-.77.85-1.31,1.11-.54.27-1.27.4-2.16.4h-3.42v-7.2h4.15c.22,0,.38.07.53.23.16.16.23.34.23.56v1h1.45v-5.59h-1.45v.98c0,.22-.07.4-.23.56s-.33.24-.55.26h-4.13v-7.48h5.25c.21.05.39.15.55.31.21.22.31.46.31.75v1.09h1.45v-5.01l-.82.36c-.07.03-.26.1-.71.18-.38.07-.79.14-1.24.19-.43.05-.85.08-1.23.08h-8.76l.15,1.45h.86c.33,0,.61.11.85.35.24.24.36.5.36.83v15.5c-.02.34-.14.61-.37.85-.24.24-.5.35-.83.35h-.95v1.45h12.7v-.25l1.95-5.45h-1.5l-.15.36Z" fill="url(#linear-gradient-12)"/>
      <path d="M353.04,135.2h.95c.33,0,.6.11.83.35.24.24.36.51.38.85v15.49c-.02.34-.14.61-.37.85-.24.24-.5.35-.83.35h-.95v1.45h7.3v-1.45h-.95c-.33,0-.6-.11-.83-.35-.24-.24-.36-.51-.37-.85v-15.49c.01-.34.13-.6.37-.84.24-.24.5-.35.83-.35h.95v-1.45h-7.3v1.45Z" fill="url(#linear-gradient-13)"/>
      <path d="M400.7,143.77c-.38-.27-.8-.49-1.25-.67.07-.05.13-.1.2-.15.53-.42.97-.96,1.31-1.62.34-.67.51-1.45.51-2.32,0-1.05-.27-1.98-.8-2.77-.53-.79-1.31-1.41-2.31-1.85-.98-.42-2.17-.64-3.55-.64h-6.22l.15,1.45h.86c.33,0,.61.11.85.35.24.24.36.5.36.83v15.51c0,.33-.11.59-.36.83-.25.24-.52.35-.85.35h-.86l-.15,1.45h7.48c1.46,0,2.73-.24,3.78-.71,1.08-.48,1.92-1.18,2.48-2.07.56-.88.85-1.92.85-3.07,0-1.02-.21-1.96-.64-2.8-.42-.84-1.04-1.54-1.84-2.1ZM397.8,137.31c.26.51.4,1.15.4,1.89,0,.79-.13,1.42-.4,1.88-.27.46-.59.8-.99,1.03-.42.24-.87.41-1.32.49-.48.09-.93.13-1.33.13h-.37v-6.92h.9c.8,0,1.47.13,1.99.4.5.25.86.61,1.12,1.1ZM394.16,144.15c.64,0,1.32.06,2.02.17.67.11,1.31.32,1.88.63.54.28.99.71,1.33,1.27.34.56.52,1.31.52,2.24,0,.83-.16,1.55-.46,2.14-.3.57-.72.99-1.29,1.28-.58.3-1.32.45-2.2.45h-2.16v-8.18h.37Z" fill="url(#linear-gradient-14)"/>
      <path d="M432.5,152.74c-.35-.21-.65-.57-.88-1.09l-7.47-17.87-.06-.43h-.12l-.57-1.37-.29,1.37h-.36v.58s0,.14-.13.52c-.1.3-.21.61-.35.94-.14.33-.31.73-.52,1.2l-6.41,15.23c-.23.43-.5.74-.81.92-.36.22-.71.32-1.03.32h-.83v1.45h6.79v-1.45h-.83c-.11,0-.22-.04-.34-.12-.11-.07-.18-.17-.23-.31-.04-.1-.03-.25.02-.43l1.76-4.51h6.75l1.7,4.51c.12.4,0,.53-.04.57-.22.24-.4.27-.52.27h-.83v1.45h7.47v-1.45h-.81c-.32,0-.68-.11-1.05-.33ZM420.63,145.7l2.65-6.78,2.55,6.78h-5.21Z" fill="url(#linear-gradient-15)"/>
      <path d="M452.26,135.2h.92c.12,0,.22.04.32.12.12.1.2.23.24.39.02.08.03.18-.07.33l-.61.95h.08s-3.41,5.97-3.41,5.97l-3.71-6.91c-.08-.2-.07-.38.04-.58.13-.23.26-.28.43-.28h.95v-1.45h-8.05v1.45h.98c.48,0,.92.13,1.33.41.43.29.76.61.97.97l5.26,8.78v6.53c-.02.34-.14.61-.38.85-.24.24-.5.35-.83.35h-.95v1.45h7.27v-1.45h-.92c-.34,0-.61-.11-.85-.35-.24-.24-.36-.5-.36-.83v-6.53l5.42-8.76c.25-.36.61-.7,1.05-.99.41-.27.83-.41,1.3-.41h.98v-1.45h-7.38v1.45Z" fill="url(#linear-gradient-16)"/>
      <path d="M495.6,145.24l-5.51-5.09c-.36-.34-.6-.71-.73-1.09-.14-.41-.21-.77-.21-1.06,0-.71.26-1.31.78-1.84.52-.53,1.2-.79,2.08-.79.74,0,1.35.21,1.87.63.48.4.71.95.71,1.67v.58h1.42v-4.61h-1.71c-.09-.02-.19-.04-.29-.06-.34-.07-.69-.12-1.06-.16-.37-.04-.71-.06-1.03-.06-1.17,0-2.18.26-3.01.77-.82.51-1.46,1.19-1.88,2.01-.41.81-.62,1.66-.62,2.53,0,.61.12,1.26.37,1.95.25.71.7,1.37,1.33,1.95l5.38,4.99c.29.26.51.56.66.93.15.37.23.78.23,1.24,0,.96-.3,1.69-.91,2.24-.64.58-1.39.88-2.28.93-.71.04-1.33-.1-1.88-.41-.54-.31-.94-.75-1.23-1.35-.29-.61-.39-1.35-.31-2.19l.06-.64h-1.32l-.13.41c-.14.44-.25.93-.33,1.45-.08.52-.12,1.03-.12,1.5s.03.9.09,1.23l.03.18.13.13c.43.43.97.78,1.6,1.04.61.25,1.25.43,1.9.53.65.1,1.19.15,1.67.15,1.76,0,3.19-.55,4.24-1.63,1.05-1.08,1.58-2.49,1.58-4.19,0-.62-.1-1.26-.31-1.91-.22-.69-.65-1.34-1.28-1.93Z" fill="url(#linear-gradient-17)"/>
      <path d="M520.1,134.45c-.94-.47-2.06-.71-3.34-.71h-7.95l.15,1.45h.86c.33,0,.61.11.85.35.24.24.36.5.36.83v15.5c-.02.34-.14.61-.37.85-.24.24-.5.35-.83.35h-.95v1.45h7.3v-1.45h-.95c-.33,0-.6-.11-.83-.35-.24-.24-.36-.51-.37-.85v-6.97l.1.05c.78.41,1.59.65,2.43.71.83.06,1.64-.04,2.42-.29.78-.26,1.48-.64,2.09-1.16.62-.52,1.12-1.16,1.49-1.91.37-.76.56-1.62.56-2.57,0-1.22-.26-2.29-.78-3.19-.52-.91-1.27-1.61-2.23-2.09ZM514.01,143.51v-7.76h2.64c1.02,0,1.78.32,2.32.97.56.68.86,1.6.87,2.77.02.26,0,.53-.02.8-.03.28-.08.51-.12.67-.21.7-.52,1.25-.92,1.62-.41.39-.85.66-1.32.81-.5.16-.98.26-1.42.28-.45.02-.98,0-1.58-.09l-.45-.07Z" fill="url(#linear-gradient-18)"/>
      <path d="M550.51,152.74c-.35-.21-.65-.57-.88-1.09l-7.47-17.87-.06-.43h-.12l-.57-1.37-.29,1.37h-.36v.58s0,.14-.13.52c-.1.3-.21.61-.35.94-.14.33-.31.73-.52,1.2l-6.41,15.23c-.23.43-.5.74-.81.92-.36.22-.71.32-1.03.32h-.83v1.45h6.79v-1.45h-.83c-.11,0-.22-.04-.34-.12-.11-.07-.18-.17-.23-.31-.04-.1-.03-.25.02-.43l1.76-4.51h6.75l1.7,4.51c.12.4,0,.53-.04.57-.22.24-.4.27-.52.27h-.83v1.45h7.47v-1.45h-.81c-.32,0-.68-.11-1.05-.33ZM538.64,145.7l2.65-6.78,2.55,6.78h-5.21Z" fill="url(#linear-gradient-19)"/>
    </g>
  </g>
  <g id="Layer_2-2" data-name="Layer 2">
    <path d="M48.58,49.1c.07-2.53-1.78-3.63-3.32-4.97-4.97-4.38-7.46-9.69-5.99-16.4.55-2.43,2.23-4.11,4.21-5.38,1.54-.99,3.6-.48,4.73.99.96,1.2.79,3.08-.38,4.38-.92,1.03-2.33,1.16-3.18.34-.48-.45-.62-.92-.27-1.54.27-.48.62-.86,1.23-.58.34.14.72.55.89-.14.17-.62.03-1.13-.58-1.44-.86-.45-1.68-.24-2.43.24-.86.51-1.16,1.44-1.03,2.36.24,1.68,1.27,2.77,2.84,3.32,1.44.48,2.67,0,3.73-1.06,1.85-1.88,2.23-3.7,1.1-5.68-1.27-2.29-3.8-3.46-6.16-2.88-3.87.99-6.33,4.38-6.57,9.11-.07,1.4-.24,2.84,0,4.28.17,1.06-.07,2.02-.89,2.81-.48.48-.86,1.1-1.3,1.61-7.43,8.49-6.61,17.67-2.16,27.09,1.71,3.6,4.38,6.51,7.33,9.14,7.67,6.85,14.11,14.62,17.53,24.45,4.28,12.33,3.22,23.9-4.69,34.65-4.38,5.96-9.21,11.64-13.18,17.87-4.11,6.47-7.02,13.39-7.98,21.06-1.03,7.98.92,15.27,5.17,21.98,1.27,1.95,2.67,3.84,4.14,5.65,3.53,4.31,8.46,5.82,13.7,6.47,3.8.45,7.6.21,11.4-.31,5.65-.79,12.6-8.97,10.27-15.51-.24-.65-.38-1.37-.79-1.85-1.06-1.3-.27-2.05.65-2.84,1.13-.96,1.61.24,2.19.79,1.88,1.78,2.47,4.18,2.88,6.61,1.03,5.65-.14,10.85-4.07,15.03-1.92,2.02-4.62,3.18-7.26,4.21-4.21,1.61-8.56,2.05-13.01,2.05-5.75,0-11.2-1.58-16.33-3.9-4.73-2.16-8.83-5.2-12.29-9.28-3.94-4.62-6.61-9.79-8.53-15.51-1.4-4.21-1.99-8.49-2.05-12.88-.1-4.14-.17-8.32.34-12.43.51-3.97.82-7.98,1.81-11.88,1.34-5.48,3.63-10.58,5.72-15.75.99-2.47,1.78-5.03,2.91-7.46,2.71-5.89,2.16-11.75.03-17.6-1.81-5-4.52-9.55-7.5-13.94-3.9-5.68-7.7-11.44-10.99-17.5-3.46-6.4-4.31-13.25-3.73-20.37.34-3.97,1.06-7.91,1.88-11.81,1.2-5.75,4.52-10.24,8.46-14.38,3.9-4.07,7.98-7.98,12.36-11.57,1.3-1.06,1.71-2.29,1.68-4.01-.07-1.88-.68-4.04,1.44-5.82-.1,1.51-.38,2.74.17,3.94.45,1.03.96,2.12,2.29,1.75,1.23-.38,2.43-1.13,2.29-2.67-.1-1.2-.38-2.43-1.75-2.98.92-.89,2.09-.34,2.57.14,1.03.99,2.43,1.03,3.46,1.88.45.38,1.3.45,1.71-.07.45-.51-.17-1.06-.45-1.47-.99-1.4-1.06-3.56-.07-5.14.55,3.25,2.02,4.79,5.24,5.41,1.78.34,3.56.58,5.24,1.3.31.14.68.27.96,0,.38-.38-.17-.55-.24-.86-1.1-3.73.27-6.92,2.33-10.17.55.92.34,1.78.34,2.57-.14,4.07,1.88,7.43,3.9,10.68.82,1.34,2.6,1.44,4.35,1.1-1.1,2.81-.89,5.38.45,7.81,1.34,2.47,4.04,2.81,6.54,3.8-3.08,3.77-2.09,7.77-.92,11.78.21.72.24,1.4.14,2.16-.45,3.87-.62,7.74.82,11.44.51,1.34,1.58,2.5,2.4,3.7,2.5,3.66,5.03,7.33,7.57,10.99.24.34.51.65.62,1.03.14.58.34,1.23-.14,1.78-.51.58-1.1.14-1.58-.03-1.95-.82-3.73-1.06-5.2.86-.65.86-.96-.03-1.27-.38-2.19-2.4-4.35-4.83-6.57-7.19-2.23-2.4-4.73-4.45-7.36-6.37-1.13-.82-2.02-1.61-1.85-3.15.03-.41.07-1.13-.58-.99-1.92.34-1.68-1.06-1.71-2.09-.07-1.16-.27-1.71-1.58-1.13-.68.31-1.44.1-2.16-.14-1.4-.51-2.71-.45-3.9.89h0ZM95.87,49.92c.86-3.22,2.74-5.55,4.62-7.88,2.16-2.4,3.7-5.1,4.35-8.36.96-4.76-.21-8.66-4.04-11.71-2.33-1.85-6.03-.38-6.47,2.6-.24,1.54,1.71,3.63,3.29,3.49.82-.07,1.2-.62,1.4-1.3.1-.41.1-.82-.48-.89-.65-.1-1.27-.31-1.3-1.1,0-.48.38-.65.79-.75.82-.21,1.3.21,1.71.82,1.03,1.51.82,2.91-.55,3.87-1.92,1.3-4.04,1.16-5.07-.31-1.47-2.12-1.27-5.24.51-7.33,1.51-1.78,3.97-2.19,6.4-1.1,1.47.68,2.57,1.71,3.49,2.98,2.23,3.05,2.26,6.51,1.85,10-.17,1.54-.24,2.84,1.47,3.66.96.45,1.58,1.47,2.09,2.43,3.39,6.16,4.86,12.81,4.14,19.76-.58,5.79-3.9,10.34-7.88,14.42-4.62,4.73-9.72,8.97-13.59,14.42-6.81,9.59-9.72,19.93-6.37,31.61,2.05,7.16,5.75,13.29,10.27,19.11,4.55,5.86,9.28,11.57,12.53,18.32,5.27,10.92,6.75,22.15,2.81,33.8-3.42,10.2-14.69,16.26-25.03,13.7-1.47-.38-3.05-1.85-4.38-1.03-1.23.75-1.85,2.53-2.84,3.77-.79.96-.21,1.51.51,1.75,3.53,1.2,7.12,2.4,10.79,2.64,2.94.17,5.99.24,9.01-.24,5.72-.92,10.68-3.15,15-6.99,5.2-4.66,8.59-10.55,10.89-16.98,2.81-7.88,4.11-16.03,3.46-24.45-.34-4.55-1.37-9.04-2.71-13.35-1.78-5.72-4.35-11.2-6.81-16.68-2.57-5.65-4.25-11.57-3.97-17.84.34-7.05,2.94-13.29,6.92-19,3.12-4.52,6.37-8.9,8.97-13.73,5.68-10.51,8.39-21.57,5.51-33.42-1.68-7.02-3.87-13.97-9.25-19.28-3.8-3.77-7.77-7.43-12.22-10.41-2.53-1.71-3.6-3.7-3.36-6.68.14-1.58-.14-3.22-1.78-4.45-.03,1.44.07,2.71-.34,3.9-.31.92-.82,1.92-1.92,1.92-1.16.03-1.4-1.13-1.68-2.05-.48-1.61.24-2.91,1.3-4.18-3.12.21-5.38,2.5-8.49,2.81,1.16-2.71,2.5-5.2,1.16-8.15-.62,6.54-7.02,8.66-11.03,8.56,1.3-3.46.31-9.07-2.91-10.24.07,5.17-2.19,13.56-9.14,13.7.24.45.45.92.68,1.34,2.02,3.46.51,6.4-1.88,8.15-.92.68-2.09,1.13-3.15,1.61-.62.27-.86.48-.48,1.23,1.34,2.6,1.23,5.27.38,7.98-.45,1.44-.86,2.98-.48,4.38.99,3.8.86,7.57.31,11.37-.14.92.1,1.64.65,2.36,1.51,1.99,2.98,4.01,4.38,6.1.58.86,1.03,1.13,1.95.34,1.44-1.2,2.94-2.29,4.52-3.36.92-.62,1.51-1.3,1.4-2.5-.03-.45-.1-1.34.34-1.37,2.19-.14,1.68-1.92,2.09-3.15.14-.38-.1-.99.72-.89,2.4.27,5.14-.48,6.92,2.26h0ZM38.14,36.23c-3.94,6.06-7.4,11.81-5.92,19.24,1.3,6.71,3.73,12.74,8.87,17.46,5.44,5.03,10.65,10.31,14.62,16.64,4.31,6.95,7.26,14.31,6.61,22.7-.51,6.44-2.71,12.4-5.51,18.18-.34.72-.92,1.37-.86,2.47,1.27-.99,1.78-2.26,2.4-3.46,3.6-6.95,5.72-14.35,6.99-22.02,1.78-10.92-1.2-20.2-9.11-28.04-6.47-6.4-11.88-13.66-16.37-21.61-3.05-5.34-3.12-10.58.45-15.72.38-.55.48-.92-.07-1.44-1.16-1.1-1.78-2.5-2.09-4.42h0ZM123.09,98.24c.07.1.17.21.34.38,1.75-.99,3.42-2.09,5.2-2.94,1.13-.55,1.71-1.16,1.47-2.43-.24-1.37.27-2.02,1.75-2.19.96-.14,2.33-.14,2.57-1.64.21-1.34.62-2.64.65-3.97.03-1.71.89-2.6,2.26-3.46,4.14-2.57,4.07-2.64,3.25-7.29-.03-.07,0-.14-.03-.17-.72-1.44.14-2.4,1.1-3.18,3.46-2.81,3.49-2.81,2.05-6.99-.17-.41-.24-.86-.45-1.27-.58-1.16-.21-2.02.62-2.98.62-.75,2.19-.82,1.92-1.95-.21-.89-1.2-1.61-1.85-2.4-.03-.07-.07-.1-.1-.14-2.12-2.36-2.19-2.71-.65-5.48.68-1.27.89-2.47-.27-3.63-.65-.62-1.06-1.47-1.64-2.16-.62-.72-.68-1.2,0-2.02,1.4-1.75,1.06-3.15-.72-4.31-2.29-1.47-2.33-1.47-1.37-5.07.31-1.06.27-1.85-.99-2.29-1.1-.38-2.16-.99-3.18-1.54-.96-.51-1.64-1.13-1.61-2.36.07-2.5-.99-4.11-3.63-4.52-.41-.03-.79-.41-1.2-.55-1.34-.38-1.99-1.1-1.71-2.57.07-.45.34-1.16-.68-1.16-1.37,0-2.71-.34-4.04-.34s-2.09-.55-2.47-1.81c-.41-1.44-.92-2.88-1.44-4.45-.82,1.23-1.47,2.36-2.26,3.39-1.4,1.92-1.16,2.77.68,4.18,2.4,1.81,4.76,3.7,7.19,5.51,12.74,9.55,16.88,22.77,15.68,37.97-.79,9.96-5,18.83-10.48,27.09-1.95,2.94-3.97,5.86-5.96,8.77h0ZM91.56,133.89c-.45-.79-.89-1.54-1.37-2.33-2.47-3.94-4.59-8.01-5.79-12.5-1.64-6.03-2.71-12.16-.24-18.25,3.36-8.22,7.84-15.65,14.38-21.78,2.19-2.05,4.28-4.14,6.37-6.23,3.66-3.73,6.51-7.91,6.99-13.32.45-4.93.24-9.79-1.34-14.52-.92-2.77-2.36-5.27-4.31-7.57-.45,1.27-.72,2.4-1.47,3.39-1.81,2.43-.86,4.52,2.16,4.86.34.03.65.07,1.13.14-.31.75-.55,1.37-.82,1.99-.75,1.81-.31,3.18,1.4,4.04.07.03.07.14.14.27-.79.65-1.54,1.34-2.36,1.95-.58.45-.82.86-.1,1.3,1.92,1.13.86,1.99-.27,2.77-1.13.79-1.47,1.68-.75,2.98.45.79.89,1.68.92,2.77-.82,0-1.58.07-2.29,0-1.27-.1-1.3.45-.89,1.4.34.82.62,1.71.96,2.74h-2.71c-.82,0-1.3.24-1.2,1.2.07.62-.07,1.27,0,1.88.1.89-.27,1.13-1.13,1.23-2.36.24-2.36.31-2.26,2.71.03.27,0,.58.03.86.07.58-.14.72-.75.75-.92.03-2.19-.82-2.67-.03-.45.68,0,1.95.03,2.98v1.61c-1.3-.27-2.47-.55-3.7-.82,0,1.44-.07,2.81.03,4.14.07,1.06-.38,1.2-1.2.96-.38-.1-.79-.14-1.16-.27-1.3-.48-1.71-.07-1.58,1.27.1,1.13.48,2.57-.03,3.32-.62.92-2.05-.1-3.15.03-.07,0-.1.07-.24.14.21.55.41,1.13.62,1.71.89,2.36.92,2.43-1.37,3.49-1.16.55-1.68,1.1-1.23,2.53.27.92,2.02,2.4-.34,3.18-.1,0-.03.51,0,.79.58,8.46,2.4,16.64,6.1,24.35,1.4,2.91,2.94,5.75,5.48,7.88h0ZM11.77,30.51c.92,1.44-.14,2.4-.96,3.08-2.53,2.12-4.55,4.69-6.57,7.26-1.16,1.47-2.6,2.84-2.88,4.86-.14.99-.45,2.16.31,2.91.89.89,1.4-.75,2.4-.68-.41,2.64-1.54,4.93-2.77,7.16-1.64,2.94-1.58,5.92-.62,9.01.24.75.75,1.34,1.51,1.47.86.17,1.2-.62,1.44-1.47.51.75.34,1.37.27,1.99-.17,2.09-.79,4.14-.34,6.27.65,3.01,1.3,6.06,3.87,8.18.75.62,1.47,1.1,2.16-.14.58.79.89,1.64.89,2.57.03,3.53,1.34,6.68,3.12,9.66.48.79.96.89,1.51.03.17-.24.1-.72.79-.62.41,2.88,1.64,5.41,3.7,7.5.41.45.79,1.37,1.71.45.68-.72,1.03-1.3.21-2.26-6.1-7.09-9.86-15.55-13.8-23.87-2.84-5.96-2.88-12.4-2.5-18.8.62-9.86,3.7-18.7,10.96-25.75,3.12-3.01,6.33-5.89,9.76-8.56,1.61-1.23,2.98-2.67,3.49-4.79-1.37,1.2-2.53,2.57-4.07,3.53-3.46,2.12-7.33,3.18-11.23,4.01-2.98.62-5.31,3.9-5.27,6.78.03.79-.31,1.81,1.06,1.88,1.16.07,1.81-.41,1.88-1.64h0ZM74.37,190.42c-.03-4.59,1.37-6.71,5.07-7.5,1.1-.24,2.16-.03,3.22.1.58.07,1.3.17,1.61-.58.27-.62.17-1.23-.27-1.75-.34-.38-.72-.72-1.13-1.03-4.14-2.94-9.35-1.99-12.02,2.33-3.46,5.58-3.32,11.27-.27,16.98,1.4,2.67,2.05,2.77,3.73.21.75-1.16,1.85-2.43,1.1-4.01-.75-1.51-1.1-3.08-1.03-4.76h0ZM62.79,69.72c.58.41,1.03.58,1.75.27,1.61-.68,3.29-.72,4.93.03,1.3.58,1.3-.72,1.85-1.2.41-.38.82-.82.1-1.51-1.23-1.16-2.29-2.47-3.42-3.77-.48-.51-.75-.48-1.13.1-1.34,2.02-2.71,4.04-4.07,6.06h0ZM135.7,115.02c-1.51-1.58-3.12-2.74-4.69-4.04-1.71-1.4-1.64-1.54.14-2.84,1.3-.99,2.4-2.23,3.8-3.53-2.36-.21-4.45-.38-6.64-.58,1.16-2.09,1.37-4.45,2.74-6.33.24-.34.03-.62,0-.92-.03-.31-.34-.21-.55-.1-2.6,1.13-5.24,2.23-7.84,3.36-.24.14-.45.51-.62.79-4.49,6.85-5.51,14.38-4.14,22.29.38,2.09.92,4.14,2.43,6.03,2.02-3.84,3.73-7.6,4.66-11.68,1.06-4.62.17-9.18-.79-13.7-.1-.38-.58-.92.14-1.13.72-.21.65.55.75.89,1.2,3.8,1.64,7.7,1.06,11.64-.82,5.48-2.77,10.55-5.41,15.37-.21.41-.92.86-.1,1.44,2.09,1.51,4.35,2.74,6.71,4.11-.17-3.08-.92-5.82-1.51-8.59-.21-.92.1-1.2.92-1.34,1.88-.31,3.77-.65,5.82-.99-.92-1.81-1.71-3.6-2.71-5.27-.62-1.1-.27-1.95.62-2.16,1.99-.48,3.12-2.29,5.2-2.71h0ZM121.59,109.47c.72,4.01,1.34,7.67-.96,11.3-.82-3.84-.89-7.5.96-11.3ZM22.05,101.56c-1.03.07-1.37.58-1.81.92-4.14,3.42-6.51,7.98-7.81,13.08-.48,1.85-.51,3.77-.17,5.68.58,3.18,2.33,5.75,4.31,8.18,1.2,1.44,2.81,2.6,4.69,2.88,1.37.21,2.84-.27,3.46-1.81.72-1.71.68-3.46-.48-5-3.94-5.24-4.52-11.27-4.21-17.5.1-2.23,1.1-4.21,2.02-6.44h0ZM26.29,126.97c5.14-8.46,3.87-17.16-2.98-25.72-2.91,4.69-3.8,18.05,2.98,25.72h0ZM25.57,119.27c-2.12-2.91-2.16-6.03-1.13-9.55,2.74,3.7,3.05,6.68,1.13,9.55ZM10.78,116.05c.99-4.66,3.8-8.32,6.37-12.12.07-.1.14-.21.17-.31.92-2.05.55-3.6-1.1-4.35-2.47-1.13-4.76-.62-5.75,1.27-1.2,2.23-1.1,4.66-1.23,7.09-.14,2.94.96,5.58,1.54,8.42h0Z" fill="url(#linear-gradient-20)"/>
    <g>
      <path d="M385.53,195.97c7.46,2.16,10.16-6.85,3.95-10.78-7.43-4.69-16.97.57-23.81,4.13-8.77,4.57-16.94,9.95-26.76,12.24-12.53,2.91-22.19-.44-34.32-2.02-26.42-3.43-54.06,2.76-80.8,1.4-2.33-.12-4.67-.46-7-.63l13.92-.08c.42-.01.81-.18,1.23-.19,21.77-.66,43.74-4.46,65.41-3.54,15.54.66,30.75,6.41,45.86.31,13.52-5.46,34.53-24.59,49.52-15.23,7.58,4.73,3.99,17.32-4.45,16.15-.39-.05-3.31-1.25-2.76-1.76Z" fill="url(#linear-gradient-21)"/>
      <path d="M387.65,190.48c-4.57-2.34-8.11,2.09-7.98,6.48.12,3.85,3.59,7.28,7,8.59,9.36,3.59,20.94-3.11,29.78-6.21,5.61-1.97,11.67-3.77,17.57-4.58,14.98-2.05,30.35,1.8,45.19,3.5,13.41,1.54,26.83,1.94,40.2,1.96,4.38,0,8.95-.17,13.3,0,.22,0,.66-.13.62.18-1.55.08-3.14.08-4.69.18-15.25.98-30.81,1.12-46.08-.18-20.39-1.74-38.63-6.8-58.89-.23-12.87,4.17-28.7,15.71-42.21,7.92-6.69-3.86-9.49-13.19-3.3-18.87,2.92-2.67,8.36-3.32,9.48,1.25Z" fill="url(#linear-gradient-22)"/>
    </g>
  </g>
</svg>